%TF.GenerationSoftware,KiCad,Pcbnew,9.0.6*%
%TF.CreationDate,2025-12-13T20:54:23-05:00*%
%TF.ProjectId,tb8_cu,7462385f-6375-42e6-9b69-6361645f7063,1.0*%
%TF.SameCoordinates,Original*%
%TF.FileFunction,Copper,L2,Inr*%
%TF.FilePolarity,Positive*%
%FSLAX46Y46*%
G04 Gerber Fmt 4.6, Leading zero omitted, Abs format (unit mm)*
G04 Created by KiCad (PCBNEW 9.0.6) date 2025-12-13 20:54:23*
%MOMM*%
%LPD*%
G01*
G04 APERTURE LIST*
G04 Aperture macros list*
%AMRoundRect*
0 Rectangle with rounded corners*
0 $1 Rounding radius*
0 $2 $3 $4 $5 $6 $7 $8 $9 X,Y pos of 4 corners*
0 Add a 4 corners polygon primitive as box body*
4,1,4,$2,$3,$4,$5,$6,$7,$8,$9,$2,$3,0*
0 Add four circle primitives for the rounded corners*
1,1,$1+$1,$2,$3*
1,1,$1+$1,$4,$5*
1,1,$1+$1,$6,$7*
1,1,$1+$1,$8,$9*
0 Add four rect primitives between the rounded corners*
20,1,$1+$1,$2,$3,$4,$5,0*
20,1,$1+$1,$4,$5,$6,$7,0*
20,1,$1+$1,$6,$7,$8,$9,0*
20,1,$1+$1,$8,$9,$2,$3,0*%
G04 Aperture macros list end*
%TA.AperFunction,ComponentPad*%
%ADD10C,1.600000*%
%TD*%
%TA.AperFunction,ComponentPad*%
%ADD11RoundRect,0.250000X-0.550000X0.950000X-0.550000X-0.950000X0.550000X-0.950000X0.550000X0.950000X0*%
%TD*%
%TA.AperFunction,ComponentPad*%
%ADD12O,1.600000X2.400000*%
%TD*%
%TA.AperFunction,ViaPad*%
%ADD13C,0.600000*%
%TD*%
%TA.AperFunction,Conductor*%
%ADD14C,0.200000*%
%TD*%
G04 APERTURE END LIST*
D10*
%TO.N,+5V*%
%TO.C,C20*%
X104030000Y-133550000D03*
%TO.N,GND*%
X104030000Y-131050000D03*
%TD*%
%TO.N,+5V*%
%TO.C,C17*%
X169030000Y-133550000D03*
%TO.N,GND*%
X169030000Y-131050000D03*
%TD*%
%TO.N,+5V*%
%TO.C,C11*%
X134030000Y-93550000D03*
%TO.N,GND*%
X134030000Y-91050000D03*
%TD*%
%TO.N,+5V*%
%TO.C,C4*%
X234030000Y-133550000D03*
%TO.N,GND*%
X234030000Y-131050000D03*
%TD*%
%TO.N,+5V*%
%TO.C,C2*%
X199030000Y-74050000D03*
%TO.N,GND*%
X199030000Y-71550000D03*
%TD*%
D11*
%TO.N,i9*%
%TO.C,U12*%
X129030000Y-105550000D03*
D12*
%TO.N,o9*%
X126490000Y-105550000D03*
%TO.N,o8*%
X123950000Y-105550000D03*
%TO.N,Net-(U11-~{BO})*%
X121410000Y-105550000D03*
%TO.N,Net-(U11-~{CO})*%
X118870000Y-105550000D03*
%TO.N,o10*%
X116330000Y-105550000D03*
%TO.N,o11*%
X113790000Y-105550000D03*
%TO.N,GND*%
X111250000Y-105550000D03*
%TO.N,i11*%
X111250000Y-113170000D03*
%TO.N,i10*%
X113790000Y-113170000D03*
%TO.N,cpl*%
X116330000Y-113170000D03*
%TO.N,Net-(U12-~{CO})*%
X118870000Y-113170000D03*
%TO.N,Net-(U12-~{BO})*%
X121410000Y-113170000D03*
%TO.N,r*%
X123950000Y-113170000D03*
%TO.N,i8*%
X126490000Y-113170000D03*
%TO.N,+5V*%
X129030000Y-113170000D03*
%TD*%
D11*
%TO.N,tadr0*%
%TO.C,U16*%
X164030000Y-85550000D03*
D12*
%TO.N,t_wr*%
X161490000Y-85550000D03*
%TO.N,Net-(U18A-~{S})*%
X158950000Y-85550000D03*
X156410000Y-85550000D03*
X153870000Y-85550000D03*
%TO.N,Net-(U14-Load)*%
X151330000Y-85550000D03*
%TO.N,GND*%
X148790000Y-85550000D03*
%TO.N,Net-(U18B-~{S})*%
X148790000Y-93170000D03*
%TO.N,tadr1*%
X151330000Y-93170000D03*
%TO.N,t_wr*%
X153870000Y-93170000D03*
%TO.N,Net-(U15-Load)*%
X156410000Y-93170000D03*
%TO.N,Net-(U18B-~{S})*%
X158950000Y-93170000D03*
X161490000Y-93170000D03*
%TO.N,+5V*%
X164030000Y-93170000D03*
%TD*%
D11*
%TO.N,i13*%
%TO.C,U13*%
X129030000Y-125550000D03*
D12*
%TO.N,o13*%
X126490000Y-125550000D03*
%TO.N,o12*%
X123950000Y-125550000D03*
%TO.N,Net-(U12-~{BO})*%
X121410000Y-125550000D03*
%TO.N,Net-(U12-~{CO})*%
X118870000Y-125550000D03*
%TO.N,o14*%
X116330000Y-125550000D03*
%TO.N,o15*%
X113790000Y-125550000D03*
%TO.N,GND*%
X111250000Y-125550000D03*
%TO.N,i15*%
X111250000Y-133170000D03*
%TO.N,i14*%
X113790000Y-133170000D03*
%TO.N,cpl*%
X116330000Y-133170000D03*
%TO.N,unconnected-(U13-~{CO}-Pad12)*%
X118870000Y-133170000D03*
%TO.N,unconnected-(U13-~{BO}-Pad13)*%
X121410000Y-133170000D03*
%TO.N,r*%
X123950000Y-133170000D03*
%TO.N,i12*%
X126490000Y-133170000D03*
%TO.N,+5V*%
X129030000Y-133170000D03*
%TD*%
D10*
%TO.N,+5V*%
%TO.C,C12*%
X134030000Y-113550000D03*
%TO.N,GND*%
X134030000Y-111050000D03*
%TD*%
D11*
%TO.N,Net-(U17-Pad1)*%
%TO.C,U17*%
X164030000Y-125550000D03*
D12*
%TO.N,exc*%
X161490000Y-125550000D03*
%TO.N,cpl*%
X158950000Y-125550000D03*
%TO.N,ldi*%
X156410000Y-125550000D03*
%TO.N,Net-(U17-Pad1)*%
X153870000Y-125550000D03*
%TO.N,Net-(U18A-~{R})*%
X151330000Y-125550000D03*
%TO.N,GND*%
X148790000Y-125550000D03*
%TO.N,Net-(U19-OE)*%
X148790000Y-133170000D03*
%TO.N,tadr0*%
X151330000Y-133170000D03*
%TO.N,t_rd*%
X153870000Y-133170000D03*
%TO.N,Net-(U20-OE)*%
X156410000Y-133170000D03*
%TO.N,tadr1*%
X158950000Y-133170000D03*
%TO.N,t_rd*%
X161490000Y-133170000D03*
%TO.N,+5V*%
X164030000Y-133170000D03*
%TD*%
D11*
%TO.N,cmp*%
%TO.C,U2*%
X194030000Y-65550000D03*
D12*
%TO.N,stc_i*%
X191490000Y-65550000D03*
%TO.N,Net-(U2-Pad3)*%
X188950000Y-65550000D03*
%TO.N,Net-(U2-Pad4)*%
X186410000Y-65550000D03*
%TO.N,exc*%
X183870000Y-65550000D03*
%TO.N,t_wr*%
X181330000Y-65550000D03*
%TO.N,GND*%
X178790000Y-65550000D03*
%TO.N,t_rd*%
X178790000Y-73170000D03*
%TO.N,exc*%
X181330000Y-73170000D03*
%TO.N,ld_i*%
X183870000Y-73170000D03*
%TO.N,t_rdi*%
X186410000Y-73170000D03*
%TO.N,ldi_i*%
X188950000Y-73170000D03*
%TO.N,exc*%
X191490000Y-73170000D03*
%TO.N,+5V*%
X194030000Y-73170000D03*
%TD*%
D11*
%TO.N,{slash}r*%
%TO.C,U1*%
X64030000Y-125550000D03*
D12*
%TO.N,ldi*%
X61490000Y-125550000D03*
%TO.N,clk_i*%
X58950000Y-125550000D03*
%TO.N,+5V*%
X56410000Y-125550000D03*
%TO.N,exc*%
X53870000Y-125550000D03*
%TO.N,ldi*%
X51330000Y-125550000D03*
%TO.N,GND*%
X48790000Y-125550000D03*
%TO.N,unconnected-(U1B-~{Q}-Pad8)*%
X48790000Y-133170000D03*
%TO.N,unconnected-(U1B-Q-Pad9)*%
X51330000Y-133170000D03*
%TO.N,unconnected-(U1B-~{S}-Pad10)*%
X53870000Y-133170000D03*
%TO.N,unconnected-(U1B-C-Pad11)*%
X56410000Y-133170000D03*
%TO.N,unconnected-(U1B-D-Pad12)*%
X58950000Y-133170000D03*
%TO.N,unconnected-(U1B-~{R}-Pad13)*%
X61490000Y-133170000D03*
%TO.N,+5V*%
X64030000Y-133170000D03*
%TD*%
D11*
%TO.N,exc*%
%TO.C,U22*%
X99030000Y-105550000D03*
D12*
%TO.N,o8*%
X96490000Y-105550000D03*
%TO.N,o9*%
X93950000Y-105550000D03*
%TO.N,o10*%
X91410000Y-105550000D03*
%TO.N,o11*%
X88870000Y-105550000D03*
%TO.N,o12*%
X86330000Y-105550000D03*
%TO.N,o13*%
X83790000Y-105550000D03*
%TO.N,o14*%
X81250000Y-105550000D03*
%TO.N,o15*%
X78710000Y-105550000D03*
%TO.N,GND*%
X76170000Y-105550000D03*
%TO.N,+5V*%
X76170000Y-113170000D03*
%TO.N,a15*%
X78710000Y-113170000D03*
%TO.N,a14*%
X81250000Y-113170000D03*
%TO.N,a13*%
X83790000Y-113170000D03*
%TO.N,a12*%
X86330000Y-113170000D03*
%TO.N,a11*%
X88870000Y-113170000D03*
%TO.N,a10*%
X91410000Y-113170000D03*
%TO.N,a9*%
X93950000Y-113170000D03*
%TO.N,a8*%
X96490000Y-113170000D03*
%TO.N,+5V*%
X99030000Y-113170000D03*
%TD*%
D10*
%TO.N,+5V*%
%TO.C,C13*%
X134030000Y-133550000D03*
%TO.N,GND*%
X134030000Y-131050000D03*
%TD*%
%TO.N,+5V*%
%TO.C,C22*%
X104030000Y-113550000D03*
%TO.N,GND*%
X104030000Y-111050000D03*
%TD*%
%TO.N,+5V*%
%TO.C,C3*%
X234030000Y-113550000D03*
%TO.N,GND*%
X234030000Y-111050000D03*
%TD*%
D11*
%TO.N,t_rdi*%
%TO.C,U8*%
X194030000Y-125550000D03*
D12*
X191490000Y-125550000D03*
%TO.N,Net-(U7-OE)*%
X188950000Y-125550000D03*
%TO.N,t_wr*%
X186410000Y-125550000D03*
X183870000Y-125550000D03*
%TO.N,Net-(U9-OE)*%
X181330000Y-125550000D03*
%TO.N,GND*%
X178790000Y-125550000D03*
%TO.N,r*%
X178790000Y-133170000D03*
%TO.N,{slash}r*%
X181330000Y-133170000D03*
X183870000Y-133170000D03*
%TO.N,Net-(U17-Pad1)*%
X186410000Y-133170000D03*
%TO.N,Net-(U3-Pad11)*%
X188950000Y-133170000D03*
X191490000Y-133170000D03*
%TO.N,+5V*%
X194030000Y-133170000D03*
%TD*%
D10*
%TO.N,+5V*%
%TO.C,C8*%
X199030000Y-133550000D03*
%TO.N,GND*%
X199030000Y-131050000D03*
%TD*%
%TO.N,+5V*%
%TO.C,C16*%
X169030000Y-93550000D03*
%TO.N,GND*%
X169030000Y-91050000D03*
%TD*%
D11*
%TO.N,Net-(U7-OE)*%
%TO.C,U7*%
X229030000Y-65550000D03*
D12*
%TO.N,ta0*%
X226490000Y-65550000D03*
%TO.N,ta1*%
X223950000Y-65550000D03*
%TO.N,ta2*%
X221410000Y-65550000D03*
%TO.N,ta3*%
X218870000Y-65550000D03*
%TO.N,ta4*%
X216330000Y-65550000D03*
%TO.N,ta5*%
X213790000Y-65550000D03*
%TO.N,GND*%
X211250000Y-65550000D03*
X208710000Y-65550000D03*
X206170000Y-65550000D03*
%TO.N,+5V*%
X206170000Y-73170000D03*
%TO.N,td7*%
X208710000Y-73170000D03*
%TO.N,td6*%
X211250000Y-73170000D03*
%TO.N,td5*%
X213790000Y-73170000D03*
%TO.N,td4*%
X216330000Y-73170000D03*
%TO.N,td3*%
X218870000Y-73170000D03*
%TO.N,td2*%
X221410000Y-73170000D03*
%TO.N,td1*%
X223950000Y-73170000D03*
%TO.N,td0*%
X226490000Y-73170000D03*
%TO.N,+5V*%
X229030000Y-73170000D03*
%TD*%
D11*
%TO.N,Net-(U19-OE)*%
%TO.C,U19*%
X99030000Y-85550000D03*
D12*
%TO.N,o0*%
X96490000Y-85550000D03*
%TO.N,o1*%
X93950000Y-85550000D03*
%TO.N,o2*%
X91410000Y-85550000D03*
%TO.N,o3*%
X88870000Y-85550000D03*
%TO.N,o4*%
X86330000Y-85550000D03*
%TO.N,o5*%
X83790000Y-85550000D03*
%TO.N,o6*%
X81250000Y-85550000D03*
%TO.N,o7*%
X78710000Y-85550000D03*
%TO.N,GND*%
X76170000Y-85550000D03*
%TO.N,+5V*%
X76170000Y-93170000D03*
%TO.N,td7*%
X78710000Y-93170000D03*
%TO.N,td6*%
X81250000Y-93170000D03*
%TO.N,td5*%
X83790000Y-93170000D03*
%TO.N,td4*%
X86330000Y-93170000D03*
%TO.N,td3*%
X88870000Y-93170000D03*
%TO.N,td2*%
X91410000Y-93170000D03*
%TO.N,td1*%
X93950000Y-93170000D03*
%TO.N,td0*%
X96490000Y-93170000D03*
%TO.N,+5V*%
X99030000Y-93170000D03*
%TD*%
D10*
%TO.N,+5V*%
%TO.C,C1*%
X69030000Y-133550000D03*
%TO.N,GND*%
X69030000Y-131050000D03*
%TD*%
D11*
%TO.N,GND*%
%TO.C,U15*%
X164030000Y-105550000D03*
D12*
%TO.N,td0*%
X161490000Y-105550000D03*
%TO.N,td1*%
X158950000Y-105550000D03*
%TO.N,td2*%
X156410000Y-105550000D03*
%TO.N,td3*%
X153870000Y-105550000D03*
%TO.N,td4*%
X151330000Y-105550000D03*
%TO.N,td5*%
X148790000Y-105550000D03*
%TO.N,td6*%
X146250000Y-105550000D03*
%TO.N,td7*%
X143710000Y-105550000D03*
%TO.N,GND*%
X141170000Y-105550000D03*
%TO.N,Net-(U15-Load)*%
X141170000Y-113170000D03*
%TO.N,i15*%
X143710000Y-113170000D03*
%TO.N,i14*%
X146250000Y-113170000D03*
%TO.N,i13*%
X148790000Y-113170000D03*
%TO.N,i12*%
X151330000Y-113170000D03*
%TO.N,i11*%
X153870000Y-113170000D03*
%TO.N,i10*%
X156410000Y-113170000D03*
%TO.N,i9*%
X158950000Y-113170000D03*
%TO.N,i8*%
X161490000Y-113170000D03*
%TO.N,+5V*%
X164030000Y-113170000D03*
%TD*%
D10*
%TO.N,+5V*%
%TO.C,C19*%
X104030000Y-93550000D03*
%TO.N,GND*%
X104030000Y-91050000D03*
%TD*%
%TO.N,+5V*%
%TO.C,C7*%
X234030000Y-73550000D03*
%TO.N,GND*%
X234030000Y-71050000D03*
%TD*%
D11*
%TO.N,Net-(U2-Pad3)*%
%TO.C,U3*%
X229030000Y-105550000D03*
D12*
%TO.N,st_i*%
X226490000Y-105550000D03*
%TO.N,Net-(U2-Pad4)*%
X223950000Y-105550000D03*
%TO.N,ta4*%
X221410000Y-105550000D03*
%TO.N,ta5*%
X218870000Y-105550000D03*
%TO.N,Net-(U6-~{E2})*%
X216330000Y-105550000D03*
%TO.N,GND*%
X213790000Y-105550000D03*
%TO.N,Net-(U9-Load)*%
X213790000Y-113170000D03*
%TO.N,t_rd*%
X216330000Y-113170000D03*
%TO.N,t_rdi*%
X218870000Y-113170000D03*
%TO.N,Net-(U3-Pad11)*%
X221410000Y-113170000D03*
%TO.N,Net-(U18B-~{Q})*%
X223950000Y-113170000D03*
%TO.N,Net-(U18A-~{Q})*%
X226490000Y-113170000D03*
%TO.N,+5V*%
X229030000Y-113170000D03*
%TD*%
D11*
%TO.N,GND*%
%TO.C,U14*%
X164030000Y-65550000D03*
D12*
%TO.N,td0*%
X161490000Y-65550000D03*
%TO.N,td1*%
X158950000Y-65550000D03*
%TO.N,td2*%
X156410000Y-65550000D03*
%TO.N,td3*%
X153870000Y-65550000D03*
%TO.N,td4*%
X151330000Y-65550000D03*
%TO.N,td5*%
X148790000Y-65550000D03*
%TO.N,td6*%
X146250000Y-65550000D03*
%TO.N,td7*%
X143710000Y-65550000D03*
%TO.N,GND*%
X141170000Y-65550000D03*
%TO.N,Net-(U14-Load)*%
X141170000Y-73170000D03*
%TO.N,i7*%
X143710000Y-73170000D03*
%TO.N,i6*%
X146250000Y-73170000D03*
%TO.N,i5*%
X148790000Y-73170000D03*
%TO.N,i4*%
X151330000Y-73170000D03*
%TO.N,i3*%
X153870000Y-73170000D03*
%TO.N,i2*%
X156410000Y-73170000D03*
%TO.N,i1*%
X158950000Y-73170000D03*
%TO.N,i0*%
X161490000Y-73170000D03*
%TO.N,+5V*%
X164030000Y-73170000D03*
%TD*%
D10*
%TO.N,+5V*%
%TO.C,C21*%
X104030000Y-73550000D03*
%TO.N,GND*%
X104030000Y-71050000D03*
%TD*%
D11*
%TO.N,i1*%
%TO.C,U10*%
X129030000Y-65550000D03*
D12*
%TO.N,o1*%
X126490000Y-65550000D03*
%TO.N,o0*%
X123950000Y-65550000D03*
%TO.N,+5V*%
X121410000Y-65550000D03*
%TO.N,ldi*%
X118870000Y-65550000D03*
%TO.N,o2*%
X116330000Y-65550000D03*
%TO.N,o3*%
X113790000Y-65550000D03*
%TO.N,GND*%
X111250000Y-65550000D03*
%TO.N,i3*%
X111250000Y-73170000D03*
%TO.N,i2*%
X113790000Y-73170000D03*
%TO.N,cpl*%
X116330000Y-73170000D03*
%TO.N,Net-(U10-~{CO})*%
X118870000Y-73170000D03*
%TO.N,Net-(U10-~{BO})*%
X121410000Y-73170000D03*
%TO.N,r*%
X123950000Y-73170000D03*
%TO.N,i0*%
X126490000Y-73170000D03*
%TO.N,+5V*%
X129030000Y-73170000D03*
%TD*%
D10*
%TO.N,+5V*%
%TO.C,C6*%
X199030000Y-113550000D03*
%TO.N,GND*%
X199030000Y-111050000D03*
%TD*%
D11*
%TO.N,Net-(U9-OE)*%
%TO.C,U9*%
X64030000Y-85550000D03*
D12*
%TO.N,td0*%
X61490000Y-85550000D03*
%TO.N,td1*%
X58950000Y-85550000D03*
%TO.N,td2*%
X56410000Y-85550000D03*
%TO.N,td3*%
X53870000Y-85550000D03*
%TO.N,td4*%
X51330000Y-85550000D03*
%TO.N,td5*%
X48790000Y-85550000D03*
%TO.N,td6*%
X46250000Y-85550000D03*
%TO.N,td7*%
X43710000Y-85550000D03*
%TO.N,GND*%
X41170000Y-85550000D03*
%TO.N,Net-(U9-Load)*%
X41170000Y-93170000D03*
%TO.N,td7*%
X43710000Y-93170000D03*
%TO.N,td6*%
X46250000Y-93170000D03*
%TO.N,td5*%
X48790000Y-93170000D03*
%TO.N,td4*%
X51330000Y-93170000D03*
%TO.N,td3*%
X53870000Y-93170000D03*
%TO.N,td2*%
X56410000Y-93170000D03*
%TO.N,td1*%
X58950000Y-93170000D03*
%TO.N,td0*%
X61490000Y-93170000D03*
%TO.N,+5V*%
X64030000Y-93170000D03*
%TD*%
D10*
%TO.N,+5V*%
%TO.C,C15*%
X169030000Y-113550000D03*
%TO.N,GND*%
X169030000Y-111050000D03*
%TD*%
%TO.N,+5V*%
%TO.C,C14*%
X169030000Y-74050000D03*
%TO.N,GND*%
X169030000Y-71550000D03*
%TD*%
D11*
%TO.N,Net-(U4-Q6)*%
%TO.C,U5*%
X229030000Y-85550000D03*
D12*
%TO.N,Net-(U4-Q7)*%
X226490000Y-85550000D03*
%TO.N,GND*%
X223950000Y-85550000D03*
X221410000Y-85550000D03*
X218870000Y-85550000D03*
%TO.N,+5V*%
X216330000Y-85550000D03*
%TO.N,unconnected-(U5-Y7-Pad7)*%
X213790000Y-85550000D03*
%TO.N,GND*%
X211250000Y-85550000D03*
%TO.N,unconnected-(U5-Y6-Pad9)*%
X211250000Y-93170000D03*
%TO.N,unconnected-(U5-Y5-Pad10)*%
X213790000Y-93170000D03*
%TO.N,unconnected-(U5-Y4-Pad11)*%
X216330000Y-93170000D03*
%TO.N,stc_i*%
X218870000Y-93170000D03*
%TO.N,st_i*%
X221410000Y-93170000D03*
%TO.N,ldi_i*%
X223950000Y-93170000D03*
%TO.N,ld_i*%
X226490000Y-93170000D03*
%TO.N,+5V*%
X229030000Y-93170000D03*
%TD*%
D11*
%TO.N,exc*%
%TO.C,U21*%
X99030000Y-65550000D03*
D12*
%TO.N,o0*%
X96490000Y-65550000D03*
%TO.N,o1*%
X93950000Y-65550000D03*
%TO.N,o2*%
X91410000Y-65550000D03*
%TO.N,o3*%
X88870000Y-65550000D03*
%TO.N,o4*%
X86330000Y-65550000D03*
%TO.N,o5*%
X83790000Y-65550000D03*
%TO.N,o6*%
X81250000Y-65550000D03*
%TO.N,o7*%
X78710000Y-65550000D03*
%TO.N,GND*%
X76170000Y-65550000D03*
%TO.N,+5V*%
X76170000Y-73170000D03*
%TO.N,a7*%
X78710000Y-73170000D03*
%TO.N,a6*%
X81250000Y-73170000D03*
%TO.N,a5*%
X83790000Y-73170000D03*
%TO.N,a4*%
X86330000Y-73170000D03*
%TO.N,a3*%
X88870000Y-73170000D03*
%TO.N,a2*%
X91410000Y-73170000D03*
%TO.N,a1*%
X93950000Y-73170000D03*
%TO.N,a0*%
X96490000Y-73170000D03*
%TO.N,+5V*%
X99030000Y-73170000D03*
%TD*%
D10*
%TO.N,+5V*%
%TO.C,C18*%
X199030000Y-93550000D03*
%TO.N,GND*%
X199030000Y-91050000D03*
%TD*%
D11*
%TO.N,i5*%
%TO.C,U11*%
X129030000Y-85550000D03*
D12*
%TO.N,o5*%
X126490000Y-85550000D03*
%TO.N,o4*%
X123950000Y-85550000D03*
%TO.N,Net-(U10-~{BO})*%
X121410000Y-85550000D03*
%TO.N,Net-(U10-~{CO})*%
X118870000Y-85550000D03*
%TO.N,o6*%
X116330000Y-85550000D03*
%TO.N,o7*%
X113790000Y-85550000D03*
%TO.N,GND*%
X111250000Y-85550000D03*
%TO.N,i7*%
X111250000Y-93170000D03*
%TO.N,i6*%
X113790000Y-93170000D03*
%TO.N,cpl*%
X116330000Y-93170000D03*
%TO.N,Net-(U11-~{CO})*%
X118870000Y-93170000D03*
%TO.N,Net-(U11-~{BO})*%
X121410000Y-93170000D03*
%TO.N,r*%
X123950000Y-93170000D03*
%TO.N,i4*%
X126490000Y-93170000D03*
%TO.N,+5V*%
X129030000Y-93170000D03*
%TD*%
D11*
%TO.N,ta0*%
%TO.C,U6*%
X194030000Y-105550000D03*
D12*
%TO.N,ta1*%
X191490000Y-105550000D03*
%TO.N,ta2*%
X188950000Y-105550000D03*
%TO.N,ta3*%
X186410000Y-105550000D03*
%TO.N,Net-(U6-~{E2})*%
X183870000Y-105550000D03*
%TO.N,+5V*%
X181330000Y-105550000D03*
%TO.N,unconnected-(U6-Y7-Pad7)*%
X178790000Y-105550000D03*
%TO.N,GND*%
X176250000Y-105550000D03*
%TO.N,unconnected-(U6-Y6-Pad9)*%
X176250000Y-113170000D03*
%TO.N,unconnected-(U6-Y5-Pad10)*%
X178790000Y-113170000D03*
%TO.N,unconnected-(U6-Y4-Pad11)*%
X181330000Y-113170000D03*
%TO.N,unconnected-(U6-Y3-Pad12)*%
X183870000Y-113170000D03*
%TO.N,unconnected-(U6-Y2-Pad13)*%
X186410000Y-113170000D03*
%TO.N,tadr1*%
X188950000Y-113170000D03*
%TO.N,tadr0*%
X191490000Y-113170000D03*
%TO.N,+5V*%
X194030000Y-113170000D03*
%TD*%
D11*
%TO.N,GND*%
%TO.C,U4*%
X229030000Y-125550000D03*
D12*
%TO.N,d0*%
X226490000Y-125550000D03*
%TO.N,d1*%
X223950000Y-125550000D03*
%TO.N,d2*%
X221410000Y-125550000D03*
%TO.N,d3*%
X218870000Y-125550000D03*
%TO.N,d4*%
X216330000Y-125550000D03*
%TO.N,d5*%
X213790000Y-125550000D03*
%TO.N,d6*%
X211250000Y-125550000D03*
%TO.N,d7*%
X208710000Y-125550000D03*
%TO.N,GND*%
X206170000Y-125550000D03*
%TO.N,ldi*%
X206170000Y-133170000D03*
%TO.N,Net-(U4-Q7)*%
X208710000Y-133170000D03*
%TO.N,Net-(U4-Q6)*%
X211250000Y-133170000D03*
%TO.N,ta5*%
X213790000Y-133170000D03*
%TO.N,ta4*%
X216330000Y-133170000D03*
%TO.N,ta3*%
X218870000Y-133170000D03*
%TO.N,ta2*%
X221410000Y-133170000D03*
%TO.N,ta1*%
X223950000Y-133170000D03*
%TO.N,ta0*%
X226490000Y-133170000D03*
%TO.N,+5V*%
X229030000Y-133170000D03*
%TD*%
D11*
%TO.N,Net-(U18A-~{R})*%
%TO.C,U18*%
X194030000Y-85550000D03*
D12*
%TO.N,GND*%
X191490000Y-85550000D03*
X188950000Y-85550000D03*
%TO.N,Net-(U18A-~{S})*%
X186410000Y-85550000D03*
%TO.N,unconnected-(U18A-Q-Pad5)*%
X183870000Y-85550000D03*
%TO.N,Net-(U18A-~{Q})*%
X181330000Y-85550000D03*
%TO.N,GND*%
X178790000Y-85550000D03*
%TO.N,Net-(U18B-~{Q})*%
X178790000Y-93170000D03*
%TO.N,unconnected-(U18B-Q-Pad9)*%
X181330000Y-93170000D03*
%TO.N,Net-(U18B-~{S})*%
X183870000Y-93170000D03*
%TO.N,GND*%
X186410000Y-93170000D03*
X188950000Y-93170000D03*
%TO.N,Net-(U18A-~{R})*%
X191490000Y-93170000D03*
%TO.N,+5V*%
X194030000Y-93170000D03*
%TD*%
D10*
%TO.N,+5V*%
%TO.C,C10*%
X134030000Y-73550000D03*
%TO.N,GND*%
X134030000Y-71050000D03*
%TD*%
%TO.N,+5V*%
%TO.C,C9*%
X69030000Y-94550000D03*
%TO.N,GND*%
X69030000Y-92050000D03*
%TD*%
D11*
%TO.N,Net-(U20-OE)*%
%TO.C,U20*%
X99030000Y-125550000D03*
D12*
%TO.N,o8*%
X96490000Y-125550000D03*
%TO.N,o9*%
X93950000Y-125550000D03*
%TO.N,o10*%
X91410000Y-125550000D03*
%TO.N,o11*%
X88870000Y-125550000D03*
%TO.N,o12*%
X86330000Y-125550000D03*
%TO.N,o13*%
X83790000Y-125550000D03*
%TO.N,o14*%
X81250000Y-125550000D03*
%TO.N,o15*%
X78710000Y-125550000D03*
%TO.N,GND*%
X76170000Y-125550000D03*
%TO.N,+5V*%
X76170000Y-133170000D03*
%TO.N,td7*%
X78710000Y-133170000D03*
%TO.N,td6*%
X81250000Y-133170000D03*
%TO.N,td5*%
X83790000Y-133170000D03*
%TO.N,td4*%
X86330000Y-133170000D03*
%TO.N,td3*%
X88870000Y-133170000D03*
%TO.N,td2*%
X91410000Y-133170000D03*
%TO.N,td1*%
X93950000Y-133170000D03*
%TO.N,td0*%
X96490000Y-133170000D03*
%TO.N,+5V*%
X99030000Y-133170000D03*
%TD*%
D10*
%TO.N,+5V*%
%TO.C,C5*%
X234030000Y-93550000D03*
%TO.N,GND*%
X234030000Y-91050000D03*
%TD*%
D13*
%TO.N,a3*%
X88800000Y-77600000D03*
%TO.N,a0*%
X96400000Y-75800000D03*
%TO.N,ta4*%
X177600000Y-98802000D03*
X203800000Y-127800000D03*
%TO.N,a12*%
X86400000Y-118050000D03*
%TO.N,a7*%
X78600000Y-80000000D03*
%TO.N,a5*%
X83800000Y-78800000D03*
%TO.N,cmp*%
X33200000Y-121400000D03*
%TO.N,a15*%
X78800000Y-119850000D03*
%TO.N,ta0*%
X238600000Y-62600000D03*
X195400000Y-100400000D03*
%TO.N,ta1*%
X238000000Y-62000000D03*
X193100000Y-100100000D03*
%TO.N,a2*%
X91400000Y-77000000D03*
%TO.N,a10*%
X91400000Y-116850000D03*
%TO.N,a6*%
X81200000Y-79400000D03*
%TO.N,a11*%
X88800000Y-117450000D03*
%TO.N,t_rd*%
X34600000Y-127600000D03*
X176830000Y-117830000D03*
%TO.N,ta3*%
X236800000Y-60800000D03*
X188300000Y-100003000D03*
%TO.N,a4*%
X86200500Y-78200500D03*
%TO.N,a13*%
X83800000Y-118650000D03*
%TO.N,ta2*%
X190600000Y-100003000D03*
X237400000Y-61400000D03*
%TO.N,a9*%
X94000000Y-116250000D03*
%TO.N,{slash}r*%
X181200000Y-135800000D03*
%TO.N,a14*%
X81200000Y-119250000D03*
%TO.N,ta5*%
X176800000Y-99400000D03*
X203200000Y-128400000D03*
%TO.N,t_wr*%
X36800000Y-131400000D03*
X174200000Y-96400000D03*
%TO.N,a8*%
X96400000Y-115800000D03*
%TO.N,exc*%
X133200000Y-108400000D03*
X166400000Y-114200000D03*
X64400000Y-111200000D03*
X166400000Y-116000000D03*
%TO.N,a1*%
X94000000Y-76400000D03*
%TO.N,t_rdi*%
X203800000Y-94000000D03*
X203800000Y-89765544D03*
%TO.N,ld_i*%
X197740000Y-78450000D03*
X197740000Y-87250000D03*
%TO.N,stc_i*%
X200540000Y-89250000D03*
%TO.N,ldi_i*%
X198940000Y-77250000D03*
X198940000Y-88450000D03*
%TO.N,Net-(U2-Pad3)*%
X202940000Y-62050000D03*
X207740000Y-101850000D03*
%TO.N,Net-(U2-Pad4)*%
X207140000Y-102650000D03*
X202140000Y-61250000D03*
%TO.N,Net-(U18B-~{Q})*%
X206540000Y-108650000D03*
%TO.N,Net-(U3-Pad11)*%
X221410000Y-117000000D03*
%TO.N,Net-(U18A-~{Q})*%
X207340000Y-107850000D03*
X196140000Y-82650000D03*
%TO.N,Net-(U4-Q7)*%
X209940000Y-83450000D03*
%TO.N,Net-(U4-Q6)*%
X212540000Y-82450000D03*
%TO.N,tadr0*%
X162800000Y-118600000D03*
%TO.N,tadr1*%
X158950000Y-130000000D03*
X152600000Y-117000000D03*
%TO.N,Net-(U7-OE)*%
X227700000Y-116300000D03*
%TO.N,Net-(U9-OE)*%
X170400000Y-103000000D03*
%TO.N,r*%
X178800000Y-137000000D03*
%TO.N,Net-(U17-Pad1)*%
X176200000Y-128400000D03*
%TO.N,cpl*%
X120200000Y-119800000D03*
X149000000Y-119800000D03*
%TO.N,i7*%
X143800000Y-78000000D03*
%TO.N,i6*%
X146200000Y-78000000D03*
%TO.N,i4*%
X151400000Y-79200000D03*
%TO.N,i5*%
X148800000Y-78000000D03*
%TO.N,i11*%
X153800000Y-119000000D03*
X117600000Y-119800000D03*
%TO.N,i10*%
X155400000Y-119000000D03*
X117600000Y-118600000D03*
%TO.N,i15*%
X126400000Y-128200000D03*
%TO.N,i14*%
X127400000Y-128200000D03*
%TO.N,Net-(U15-Load)*%
X155400000Y-110600000D03*
%TO.N,Net-(U20-OE)*%
X99030000Y-128430000D03*
X132200000Y-128800000D03*
%TO.N,Net-(U18A-~{R})*%
X187800000Y-119600000D03*
X185200000Y-100003000D03*
%TD*%
D14*
%TO.N,ta4*%
X203800000Y-127800000D02*
X214000000Y-127800000D01*
X214000000Y-127800000D02*
X216330000Y-130130000D01*
X216330000Y-130130000D02*
X216330000Y-133170000D01*
%TO.N,td1*%
X159650000Y-67650000D02*
X220050000Y-67650000D01*
X59852000Y-88052000D02*
X92852000Y-88052000D01*
X157600000Y-95200000D02*
X94400000Y-95200000D01*
X93950000Y-94750000D02*
X93950000Y-93170000D01*
X223950000Y-71550000D02*
X223950000Y-73170000D01*
X58950000Y-85550000D02*
X58950000Y-87150000D01*
X93950000Y-89150000D02*
X93950000Y-93170000D01*
X158950000Y-96550000D02*
X157600000Y-95200000D01*
X158950000Y-65550000D02*
X158950000Y-66950000D01*
X92852000Y-88052000D02*
X93950000Y-89150000D01*
X58950000Y-87150000D02*
X59852000Y-88052000D01*
X94400000Y-95200000D02*
X93950000Y-94750000D01*
X158950000Y-66950000D02*
X159650000Y-67650000D01*
X158950000Y-105550000D02*
X158950000Y-96550000D01*
X220050000Y-67650000D02*
X223950000Y-71550000D01*
%TO.N,td2*%
X156410000Y-65550000D02*
X156410000Y-67210000D01*
X91410000Y-93170000D02*
X91410000Y-94810000D01*
X156410000Y-96810000D02*
X156410000Y-105550000D01*
X217850000Y-68050000D02*
X221410000Y-71610000D01*
X221410000Y-71610000D02*
X221410000Y-73170000D01*
X91410000Y-94810000D02*
X92201000Y-95601000D01*
X56410000Y-85550000D02*
X56410000Y-87010000D01*
X92201000Y-95601000D02*
X155201000Y-95601000D01*
X156410000Y-67210000D02*
X157250000Y-68050000D01*
X155201000Y-95601000D02*
X156410000Y-96810000D01*
X56410000Y-87010000D02*
X57853000Y-88453000D01*
X57853000Y-88453000D02*
X90253000Y-88453000D01*
X157250000Y-68050000D02*
X217850000Y-68050000D01*
X91410000Y-89610000D02*
X91410000Y-93170000D01*
X90253000Y-88453000D02*
X91410000Y-89610000D01*
%TO.N,td0*%
X97400000Y-94800000D02*
X160200000Y-94800000D01*
X161490000Y-65550000D02*
X161490000Y-66890000D01*
X95251000Y-87651000D02*
X96490000Y-88890000D01*
X160200000Y-94800000D02*
X161490000Y-96090000D01*
X96490000Y-93170000D02*
X96490000Y-93890000D01*
X62051000Y-87651000D02*
X95251000Y-87651000D01*
X222250000Y-67250000D02*
X226490000Y-71490000D01*
X96490000Y-88890000D02*
X96490000Y-93170000D01*
X161850000Y-67250000D02*
X222250000Y-67250000D01*
X96490000Y-93890000D02*
X97400000Y-94800000D01*
X61490000Y-85550000D02*
X61490000Y-87090000D01*
X226490000Y-71490000D02*
X226490000Y-73170000D01*
X61490000Y-87090000D02*
X62051000Y-87651000D01*
X161490000Y-96090000D02*
X161490000Y-105550000D01*
X161490000Y-66890000D02*
X161850000Y-67250000D01*
%TO.N,td7*%
X47058000Y-90458000D02*
X43710000Y-87110000D01*
X143710000Y-67310000D02*
X146454000Y-70054000D01*
X85112900Y-97600000D02*
X85113900Y-97601000D01*
X78710000Y-93170000D02*
X78710000Y-94710000D01*
X78710000Y-91510000D02*
X77658000Y-90458000D01*
X78710000Y-93170000D02*
X78710000Y-91510000D01*
X142406000Y-97606000D02*
X143710000Y-98910000D01*
X143710000Y-98910000D02*
X143710000Y-105550000D01*
X146454000Y-70054000D02*
X207254000Y-70054000D01*
X89061700Y-97603000D02*
X91034600Y-97603000D01*
X81600000Y-97600000D02*
X85112900Y-97600000D01*
X87086800Y-97601000D02*
X87087800Y-97602000D01*
X208710000Y-71510000D02*
X208710000Y-73170000D01*
X87087800Y-97602000D02*
X89060700Y-97602000D01*
X207254000Y-70054000D02*
X208710000Y-71510000D01*
X89060700Y-97602000D02*
X89061700Y-97603000D01*
X77658000Y-90458000D02*
X47058000Y-90458000D01*
X78710000Y-94710000D02*
X81600000Y-97600000D01*
X85113900Y-97601000D02*
X87086800Y-97601000D01*
X43710000Y-87110000D02*
X43710000Y-85550000D01*
X91034600Y-97603000D02*
X91037600Y-97606000D01*
X91037600Y-97606000D02*
X142406000Y-97606000D01*
X143710000Y-65550000D02*
X143710000Y-67310000D01*
%TO.N,ta0*%
X227200000Y-62600000D02*
X226490000Y-63310000D01*
X238600000Y-62600000D02*
X227200000Y-62600000D01*
X226490000Y-63310000D02*
X226490000Y-65550000D01*
%TO.N,td5*%
X51256000Y-89656000D02*
X82656000Y-89656000D01*
X148790000Y-67190000D02*
X150852000Y-69252000D01*
X213790000Y-71590000D02*
X213790000Y-73170000D01*
X211452000Y-69252000D02*
X213790000Y-71590000D01*
X48790000Y-87190000D02*
X51256000Y-89656000D01*
X91369800Y-96804000D02*
X147604000Y-96804000D01*
X83790000Y-90790000D02*
X83790000Y-93170000D01*
X86000000Y-96800000D02*
X89392900Y-96800000D01*
X147604000Y-96804000D02*
X148790000Y-97990000D01*
X83790000Y-93170000D02*
X83790000Y-94590000D01*
X89393900Y-96801000D02*
X91366800Y-96801000D01*
X83790000Y-94590000D02*
X86000000Y-96800000D01*
X89392900Y-96800000D02*
X89393900Y-96801000D01*
X48790000Y-85550000D02*
X48790000Y-87190000D01*
X148790000Y-97990000D02*
X148790000Y-105550000D01*
X82656000Y-89656000D02*
X83790000Y-90790000D01*
X148790000Y-65550000D02*
X148790000Y-67190000D01*
X150852000Y-69252000D02*
X211452000Y-69252000D01*
X91366800Y-96801000D02*
X91369800Y-96804000D01*
%TO.N,td6*%
X80257000Y-90057000D02*
X49257000Y-90057000D01*
X81250000Y-93170000D02*
X81250000Y-94650000D01*
X89226800Y-97201000D02*
X89227800Y-97202000D01*
X87253900Y-97201000D02*
X89226800Y-97201000D01*
X146250000Y-98450000D02*
X146250000Y-105550000D01*
X146250000Y-67250000D02*
X148653000Y-69653000D01*
X209253000Y-69653000D02*
X211250000Y-71650000D01*
X89227800Y-97202000D02*
X91200700Y-97202000D01*
X81250000Y-93170000D02*
X81250000Y-91050000D01*
X87252900Y-97200000D02*
X87253900Y-97201000D01*
X148653000Y-69653000D02*
X209253000Y-69653000D01*
X91200700Y-97202000D02*
X91203700Y-97205000D01*
X91203700Y-97205000D02*
X145005000Y-97205000D01*
X146250000Y-65550000D02*
X146250000Y-67250000D01*
X145005000Y-97205000D02*
X146250000Y-98450000D01*
X81250000Y-94650000D02*
X83800000Y-97200000D01*
X49257000Y-90057000D02*
X46250000Y-87050000D01*
X46250000Y-87050000D02*
X46250000Y-85550000D01*
X83800000Y-97200000D02*
X87252900Y-97200000D01*
X81250000Y-91050000D02*
X80257000Y-90057000D01*
X211250000Y-71650000D02*
X211250000Y-73170000D01*
%TO.N,ldi*%
X61490000Y-123910000D02*
X63000000Y-122400000D01*
X206170000Y-134230000D02*
X206170000Y-133170000D01*
X156410000Y-125550000D02*
X156410000Y-130874951D01*
X156410000Y-130874951D02*
X157600000Y-132064951D01*
X157600000Y-134088524D02*
X158711476Y-135200000D01*
X61490000Y-125550000D02*
X61490000Y-123910000D01*
X158711476Y-135200000D02*
X205200000Y-135200000D01*
X156410000Y-124010000D02*
X156410000Y-125550000D01*
X205200000Y-135200000D02*
X206170000Y-134230000D01*
X157600000Y-132064951D02*
X157600000Y-134088524D01*
X63000000Y-122400000D02*
X154800000Y-122400000D01*
X154800000Y-122400000D02*
X156410000Y-124010000D01*
%TO.N,ta1*%
X223950000Y-63050000D02*
X223950000Y-65550000D01*
X238000000Y-62000000D02*
X225000000Y-62000000D01*
X225000000Y-62000000D02*
X223950000Y-63050000D01*
%TO.N,t_rd*%
X216330000Y-114670000D02*
X216330000Y-113170000D01*
X215402000Y-115598000D02*
X216330000Y-114670000D01*
X206067800Y-115598000D02*
X215402000Y-115598000D01*
X165230000Y-129430000D02*
X163770000Y-129430000D01*
X161490000Y-131710000D02*
X161490000Y-133170000D01*
X163770000Y-129430000D02*
X161490000Y-131710000D01*
X176830000Y-117830000D02*
X165230000Y-129430000D01*
X179060000Y-115600000D02*
X206065800Y-115600000D01*
X206065800Y-115600000D02*
X206067800Y-115598000D01*
X176830000Y-117830000D02*
X179060000Y-115600000D01*
%TO.N,ta3*%
X236800000Y-60800000D02*
X221000000Y-60800000D01*
X221000000Y-60800000D02*
X218870000Y-62930000D01*
X218870000Y-62930000D02*
X218870000Y-65550000D01*
%TO.N,ta2*%
X221410000Y-62990000D02*
X221410000Y-65550000D01*
X237400000Y-61400000D02*
X223000000Y-61400000D01*
X223000000Y-61400000D02*
X221410000Y-62990000D01*
%TO.N,{slash}r*%
X64030000Y-123970000D02*
X65200000Y-122800000D01*
X65200000Y-122800000D02*
X132800000Y-122800000D01*
X132800000Y-122800000D02*
X145800000Y-135800000D01*
X145800000Y-135800000D02*
X181200000Y-135800000D01*
X64030000Y-125550000D02*
X64030000Y-123970000D01*
%TO.N,td4*%
X213451000Y-68851000D02*
X216330000Y-71730000D01*
X85455000Y-89255000D02*
X53455000Y-89255000D01*
X151330000Y-97730000D02*
X151330000Y-105550000D01*
X86330000Y-90130000D02*
X85455000Y-89255000D01*
X91535900Y-96403000D02*
X150003000Y-96403000D01*
X51330000Y-87130000D02*
X51330000Y-85550000D01*
X86330000Y-94730000D02*
X88000000Y-96400000D01*
X151330000Y-65550000D02*
X151330000Y-67330000D01*
X91532900Y-96400000D02*
X91535900Y-96403000D01*
X151330000Y-67330000D02*
X152851000Y-68851000D01*
X86330000Y-93170000D02*
X86330000Y-94730000D01*
X86330000Y-93170000D02*
X86330000Y-90130000D01*
X152851000Y-68851000D02*
X213451000Y-68851000D01*
X150003000Y-96403000D02*
X151330000Y-97730000D01*
X53455000Y-89255000D02*
X51330000Y-87130000D01*
X216330000Y-71730000D02*
X216330000Y-73170000D01*
X88000000Y-96400000D02*
X91532900Y-96400000D01*
%TO.N,ta5*%
X203200000Y-128400000D02*
X212000000Y-128400000D01*
X212000000Y-128400000D02*
X213790000Y-130190000D01*
X213790000Y-130190000D02*
X213790000Y-133170000D01*
%TO.N,t_wr*%
X161490000Y-85550000D02*
X161490000Y-86910000D01*
X156000000Y-89600000D02*
X153870000Y-91730000D01*
X161490000Y-86910000D02*
X158800000Y-89600000D01*
X153870000Y-91730000D02*
X153870000Y-93170000D01*
X158800000Y-89600000D02*
X156000000Y-89600000D01*
%TO.N,exc*%
X191490000Y-71690000D02*
X190600000Y-70800000D01*
X133200000Y-108400000D02*
X164600000Y-108400000D01*
X181330000Y-74870000D02*
X166400000Y-89800000D01*
X182200000Y-70800000D02*
X181330000Y-71670000D01*
X181330000Y-73170000D02*
X181330000Y-74870000D01*
X190600000Y-70800000D02*
X182200000Y-70800000D01*
X161490000Y-120910000D02*
X161490000Y-125550000D01*
X166400000Y-89800000D02*
X166400000Y-110200000D01*
X191490000Y-73170000D02*
X191490000Y-71690000D01*
X181330000Y-71670000D02*
X181330000Y-73170000D01*
X166400000Y-110200000D02*
X166400000Y-114200000D01*
X166400000Y-116000000D02*
X161490000Y-120910000D01*
X164600000Y-108400000D02*
X166400000Y-110200000D01*
%TO.N,td3*%
X152602000Y-96002000D02*
X153870000Y-97270000D01*
X88870000Y-93170000D02*
X88870000Y-90070000D01*
X88870000Y-93170000D02*
X88870000Y-94670000D01*
X87654000Y-88854000D02*
X55654000Y-88854000D01*
X153870000Y-67270000D02*
X155050000Y-68450000D01*
X55654000Y-88854000D02*
X53870000Y-87070000D01*
X215850000Y-68450000D02*
X218870000Y-71470000D01*
X88870000Y-90070000D02*
X87654000Y-88854000D01*
X153870000Y-65550000D02*
X153870000Y-67270000D01*
X53870000Y-87070000D02*
X53870000Y-85550000D01*
X218870000Y-71470000D02*
X218870000Y-73170000D01*
X90199000Y-95999000D02*
X91699000Y-95999000D01*
X88870000Y-94670000D02*
X90199000Y-95999000D01*
X91702000Y-96002000D02*
X152602000Y-96002000D01*
X155050000Y-68450000D02*
X215850000Y-68450000D01*
X91699000Y-95999000D02*
X91702000Y-96002000D01*
X153870000Y-97270000D02*
X153870000Y-105550000D01*
%TO.N,t_rdi*%
X196682900Y-125550000D02*
X194030000Y-125550000D01*
X218870000Y-113170000D02*
X218870000Y-114730000D01*
X217601000Y-115999000D02*
X206233900Y-115999000D01*
X218870000Y-114730000D02*
X217601000Y-115999000D01*
X206233900Y-115999000D02*
X196682900Y-125550000D01*
%TO.N,ld_i*%
X183870000Y-74670000D02*
X183870000Y-73170000D01*
X226490000Y-91490000D02*
X226490000Y-93170000D01*
X197740000Y-87250000D02*
X222250000Y-87250000D01*
X187650000Y-78450000D02*
X183870000Y-74670000D01*
X222250000Y-87250000D02*
X226490000Y-91490000D01*
X197740000Y-78450000D02*
X187650000Y-78450000D01*
%TO.N,stc_i*%
X218870000Y-91470000D02*
X216565544Y-89165544D01*
X200624456Y-89165544D02*
X200540000Y-89250000D01*
X218870000Y-93170000D02*
X218870000Y-91470000D01*
X216565544Y-89165544D02*
X200624456Y-89165544D01*
%TO.N,ldi_i*%
X223950000Y-91550000D02*
X223950000Y-93170000D01*
X220850000Y-88450000D02*
X223950000Y-91550000D01*
X198940000Y-77250000D02*
X191650000Y-77250000D01*
X191650000Y-77250000D02*
X188950000Y-74550000D01*
X198940000Y-88450000D02*
X220850000Y-88450000D01*
X188950000Y-74550000D02*
X188950000Y-73170000D01*
%TO.N,Net-(U2-Pad3)*%
X190950000Y-62050000D02*
X188950000Y-64050000D01*
X188950000Y-64050000D02*
X188950000Y-65550000D01*
X207740000Y-101850000D02*
X226850000Y-101850000D01*
X226850000Y-101850000D02*
X229030000Y-104030000D01*
X229030000Y-104030000D02*
X229030000Y-105550000D01*
X202940000Y-62050000D02*
X190950000Y-62050000D01*
%TO.N,Net-(U2-Pad4)*%
X202140000Y-61250000D02*
X189350000Y-61250000D01*
X222650000Y-102650000D02*
X207140000Y-102650000D01*
X223950000Y-105550000D02*
X223950000Y-103950000D01*
X186410000Y-64190000D02*
X186410000Y-65550000D01*
X189350000Y-61250000D02*
X186410000Y-64190000D01*
X223950000Y-103950000D02*
X222650000Y-102650000D01*
%TO.N,Net-(U18B-~{Q})*%
X223950000Y-111550000D02*
X221050000Y-108650000D01*
X221050000Y-108650000D02*
X206540000Y-108650000D01*
X223950000Y-113170000D02*
X223950000Y-111550000D01*
%TO.N,Net-(U6-~{E2})*%
X216330000Y-104130000D02*
X215600000Y-103400000D01*
X184600000Y-103400000D02*
X183870000Y-104130000D01*
X215600000Y-103400000D02*
X184600000Y-103400000D01*
X216330000Y-105550000D02*
X216330000Y-104130000D01*
X183870000Y-104130000D02*
X183870000Y-105550000D01*
%TO.N,Net-(U3-Pad11)*%
X221410000Y-117000000D02*
X206400000Y-117000000D01*
X206400000Y-117000000D02*
X194800000Y-128600000D01*
X194400000Y-128600000D02*
X191490000Y-131510000D01*
X194800000Y-128600000D02*
X194400000Y-128600000D01*
X191490000Y-131510000D02*
X191490000Y-133170000D01*
%TO.N,Net-(U18A-~{Q})*%
X226490000Y-111490000D02*
X222850000Y-107850000D01*
X196140000Y-82650000D02*
X182750000Y-82650000D01*
X182750000Y-82650000D02*
X181330000Y-84070000D01*
X181330000Y-84070000D02*
X181330000Y-85550000D01*
X222850000Y-107850000D02*
X207340000Y-107850000D01*
X226490000Y-113170000D02*
X226490000Y-111490000D01*
%TO.N,Net-(U9-Load)*%
X41170000Y-95770000D02*
X41170000Y-93170000D01*
X60600000Y-115200000D02*
X41170000Y-95770000D01*
X205899700Y-115199000D02*
X97201000Y-115199000D01*
X213790000Y-114410000D02*
X213003000Y-115197000D01*
X205901700Y-115197000D02*
X205899700Y-115199000D01*
X213790000Y-113170000D02*
X213790000Y-114410000D01*
X97201000Y-115199000D02*
X97200000Y-115200000D01*
X97200000Y-115200000D02*
X60600000Y-115200000D01*
X213003000Y-115197000D02*
X205901700Y-115197000D01*
%TO.N,Net-(U4-Q7)*%
X226490000Y-84090000D02*
X226490000Y-85550000D01*
X225850000Y-83450000D02*
X226490000Y-84090000D01*
X209940000Y-83450000D02*
X225850000Y-83450000D01*
%TO.N,Net-(U4-Q6)*%
X229030000Y-84030000D02*
X229030000Y-85550000D01*
X212540000Y-82450000D02*
X227450000Y-82450000D01*
X227450000Y-82450000D02*
X229030000Y-84030000D01*
%TO.N,tadr1*%
X158950000Y-130000000D02*
X158950000Y-133170000D01*
%TO.N,Net-(U7-OE)*%
X206400000Y-116400000D02*
X194600000Y-128200000D01*
X194600000Y-128200000D02*
X190000000Y-128200000D01*
X190000000Y-128200000D02*
X188950000Y-127150000D01*
X227600000Y-116400000D02*
X206400000Y-116400000D01*
X188950000Y-127150000D02*
X188950000Y-125550000D01*
X227700000Y-116300000D02*
X227600000Y-116400000D01*
%TO.N,r*%
X123950000Y-91650000D02*
X123950000Y-93170000D01*
X123950000Y-133170000D02*
X123950000Y-134950000D01*
X123950000Y-73170000D02*
X123950000Y-74750000D01*
X125200000Y-90400000D02*
X123950000Y-91650000D01*
X126000000Y-137000000D02*
X178800000Y-137000000D01*
X123950000Y-134950000D02*
X126000000Y-137000000D01*
X123950000Y-74750000D02*
X125200000Y-76000000D01*
X125200000Y-76000000D02*
X125200000Y-90400000D01*
%TO.N,Net-(U17-Pad1)*%
X183400000Y-128400000D02*
X186410000Y-131410000D01*
X186410000Y-131410000D02*
X186410000Y-133170000D01*
X176200000Y-128400000D02*
X183400000Y-128400000D01*
%TO.N,o3*%
X113790000Y-63990000D02*
X112800000Y-63000000D01*
X113790000Y-65550000D02*
X113790000Y-63990000D01*
X88870000Y-64130000D02*
X88870000Y-65550000D01*
X90000000Y-63000000D02*
X88870000Y-64130000D01*
X112800000Y-63000000D02*
X90000000Y-63000000D01*
%TO.N,i1*%
X157800000Y-70600000D02*
X158950000Y-71750000D01*
X145000000Y-70600000D02*
X157800000Y-70600000D01*
X129030000Y-65550000D02*
X137450000Y-65550000D01*
X158950000Y-71750000D02*
X158950000Y-73170000D01*
X137450000Y-65550000D02*
X139900000Y-68000000D01*
X139900000Y-68000000D02*
X142400000Y-68000000D01*
X142400000Y-68000000D02*
X145000000Y-70600000D01*
%TO.N,cpl*%
X116330000Y-74530000D02*
X117600000Y-75800000D01*
X117600000Y-75800000D02*
X117600000Y-90400000D01*
X116330000Y-73170000D02*
X116330000Y-74530000D01*
X117600000Y-90400000D02*
X116330000Y-91670000D01*
X116330000Y-91670000D02*
X116330000Y-93170000D01*
%TO.N,Net-(U10-~{BO})*%
X121410000Y-73170000D02*
X121410000Y-85550000D01*
%TO.N,Net-(U10-~{CO})*%
X118870000Y-73170000D02*
X118870000Y-85550000D01*
%TO.N,o2*%
X92400000Y-68000000D02*
X91410000Y-67010000D01*
X116330000Y-67070000D02*
X115400000Y-68000000D01*
X115400000Y-68000000D02*
X92400000Y-68000000D01*
X91410000Y-67010000D02*
X91410000Y-65550000D01*
X116330000Y-65550000D02*
X116330000Y-67070000D01*
%TO.N,i7*%
X143710000Y-77910000D02*
X143800000Y-78000000D01*
X143710000Y-73170000D02*
X143710000Y-77910000D01*
%TO.N,o7*%
X113150000Y-87250000D02*
X79650000Y-87250000D01*
X113790000Y-86610000D02*
X113150000Y-87250000D01*
X113790000Y-85550000D02*
X113790000Y-86610000D01*
X78710000Y-86310000D02*
X78710000Y-85550000D01*
X79650000Y-87250000D02*
X78710000Y-86310000D01*
%TO.N,i6*%
X146250000Y-77950000D02*
X146200000Y-78000000D01*
X146250000Y-73170000D02*
X146250000Y-77950000D01*
%TO.N,i4*%
X151330000Y-79130000D02*
X151400000Y-79200000D01*
X151330000Y-73170000D02*
X151330000Y-79130000D01*
%TO.N,i5*%
X148790000Y-77990000D02*
X148800000Y-78000000D01*
X148790000Y-73170000D02*
X148790000Y-77990000D01*
%TO.N,o6*%
X115400000Y-83200000D02*
X82200000Y-83200000D01*
X81250000Y-84150000D02*
X81250000Y-85550000D01*
X116330000Y-85550000D02*
X116330000Y-84130000D01*
X116330000Y-84130000D02*
X115400000Y-83200000D01*
X82200000Y-83200000D02*
X81250000Y-84150000D01*
%TO.N,i11*%
X117600000Y-119800000D02*
X118400000Y-119000000D01*
X118400000Y-119000000D02*
X153800000Y-119000000D01*
%TO.N,o11*%
X88870000Y-103930000D02*
X88870000Y-105550000D01*
X89800000Y-103000000D02*
X88870000Y-103930000D01*
X112800000Y-103000000D02*
X89800000Y-103000000D01*
X113790000Y-105550000D02*
X113790000Y-103990000D01*
X113790000Y-103990000D02*
X112800000Y-103000000D01*
%TO.N,o10*%
X92400000Y-108200000D02*
X91410000Y-107210000D01*
X116330000Y-105550000D02*
X116330000Y-107070000D01*
X91410000Y-107210000D02*
X91410000Y-105550000D01*
X115200000Y-108200000D02*
X92400000Y-108200000D01*
X116330000Y-107070000D02*
X115200000Y-108200000D01*
%TO.N,i10*%
X154799000Y-118399000D02*
X155400000Y-119000000D01*
X117801000Y-118399000D02*
X154799000Y-118399000D01*
X117600000Y-118600000D02*
X117801000Y-118399000D01*
%TO.N,i9*%
X129030000Y-107230000D02*
X131000000Y-109200000D01*
X129030000Y-105550000D02*
X129030000Y-107230000D01*
X158950000Y-111750000D02*
X158950000Y-113170000D01*
X131000000Y-109200000D02*
X156400000Y-109200000D01*
X156400000Y-109200000D02*
X158950000Y-111750000D01*
%TO.N,i15*%
X125200000Y-128200000D02*
X124400000Y-129000000D01*
X124400000Y-129000000D02*
X113800000Y-129000000D01*
X113800000Y-129000000D02*
X111250000Y-131550000D01*
X111250000Y-131550000D02*
X111250000Y-133170000D01*
X126400000Y-128200000D02*
X125200000Y-128200000D01*
%TO.N,o15*%
X113790000Y-126810000D02*
X112800000Y-127800000D01*
X79600000Y-127800000D02*
X78710000Y-126910000D01*
X113790000Y-125550000D02*
X113790000Y-126810000D01*
X78710000Y-126910000D02*
X78710000Y-125550000D01*
X112800000Y-127800000D02*
X79600000Y-127800000D01*
%TO.N,o14*%
X116330000Y-124130000D02*
X115400000Y-123200000D01*
X116330000Y-125550000D02*
X116330000Y-124130000D01*
X82000000Y-123200000D02*
X81250000Y-123950000D01*
X81250000Y-123950000D02*
X81250000Y-125550000D01*
X115400000Y-123200000D02*
X82000000Y-123200000D01*
%TO.N,i14*%
X127400000Y-128200000D02*
X125400000Y-130200000D01*
X114800000Y-130200000D02*
X113790000Y-131210000D01*
X125400000Y-130200000D02*
X114800000Y-130200000D01*
X113790000Y-131210000D02*
X113790000Y-133170000D01*
%TO.N,Net-(U14-Load)*%
X151330000Y-81330000D02*
X151330000Y-85550000D01*
X149200000Y-79200000D02*
X151330000Y-81330000D01*
X143400000Y-79200000D02*
X149200000Y-79200000D01*
X141170000Y-76970000D02*
X143400000Y-79200000D01*
X141170000Y-73170000D02*
X141170000Y-76970000D01*
%TO.N,Net-(U15-Load)*%
X142000000Y-111000000D02*
X141170000Y-111830000D01*
X155400000Y-110600000D02*
X155000000Y-111000000D01*
X141170000Y-111830000D02*
X141170000Y-113170000D01*
X155000000Y-111000000D02*
X142000000Y-111000000D01*
%TO.N,Net-(U18A-~{R})*%
X185200000Y-100003000D02*
X186197000Y-100003000D01*
X186197000Y-100003000D02*
X191490000Y-94710000D01*
X191490000Y-94710000D02*
X191490000Y-93170000D01*
%TD*%
M02*
