M48
; DRILL file {KiCad 9.0.6} date 2025-12-16T20:37:23-0500
; FORMAT={-:-/ absolute / metric / decimal}
; #@! TF.CreationDate,2025-12-16T20:37:23-05:00
; #@! TF.GenerationSoftware,Kicad,Pcbnew,9.0.6
; #@! TF.FileFunction,Plated,1,4,PTH
FMAT,2
METRIC
; #@! TA.AperFunction,Plated,PTH,ViaDrill
T1C0.300
; #@! TA.AperFunction,Plated,PTH,ComponentDrill
T2C0.800
%
G90
G05
T1
X33.2Y-121.4
X34.6Y-127.6
X36.8Y-131.4
X64.4Y-111.2
X78.6Y-80.0
X78.8Y-119.85
X81.2Y-79.4
X81.2Y-119.25
X83.8Y-78.8
X83.8Y-118.65
X86.2Y-78.2
X86.4Y-118.05
X88.8Y-77.6
X88.8Y-117.45
X91.4Y-77.0
X91.4Y-116.85
X94.0Y-76.4
X94.0Y-116.25
X96.4Y-75.8
X96.4Y-115.8
X99.03Y-128.43
X117.6Y-118.6
X117.6Y-119.8
X120.2Y-119.8
X126.4Y-128.2
X127.4Y-128.2
X132.2Y-128.8
X133.2Y-108.4
X143.8Y-78.0
X146.2Y-78.0
X148.8Y-78.0
X149.0Y-119.8
X151.4Y-79.2
X152.6Y-117.0
X153.8Y-119.0
X155.4Y-110.6
X155.4Y-119.0
X158.95Y-130.0
X162.8Y-118.6
X166.4Y-114.2
X166.4Y-116.0
X170.4Y-103.0
X174.2Y-96.4
X176.2Y-128.4
X176.8Y-99.4
X176.83Y-117.83
X177.6Y-98.802
X178.8Y-137.0
X181.2Y-135.8
X185.2Y-100.003
X187.8Y-119.6
X188.3Y-100.003
X190.6Y-100.003
X193.1Y-100.1
X195.4Y-100.4
X196.14Y-82.65
X197.74Y-78.45
X197.74Y-87.25
X198.94Y-77.25
X198.94Y-88.45
X200.54Y-89.25
X202.14Y-61.25
X202.94Y-62.05
X203.2Y-128.4
X203.8Y-89.766
X203.8Y-94.0
X203.8Y-127.8
X206.54Y-108.65
X207.14Y-102.65
X207.34Y-107.85
X207.74Y-101.85
X209.94Y-83.45
X212.54Y-82.45
X221.41Y-117.0
X227.7Y-116.3
X236.8Y-60.8
X237.4Y-61.4
X238.0Y-62.0
X238.6Y-62.6
T2
X41.17Y-85.55
X41.17Y-93.17
X43.71Y-85.55
X43.71Y-93.17
X46.25Y-85.55
X46.25Y-93.17
X48.79Y-85.55
X48.79Y-93.17
X48.79Y-125.55
X48.79Y-133.17
X51.33Y-85.55
X51.33Y-93.17
X51.33Y-125.55
X51.33Y-133.17
X53.87Y-85.55
X53.87Y-93.17
X53.87Y-125.55
X53.87Y-133.17
X56.41Y-85.55
X56.41Y-93.17
X56.41Y-125.55
X56.41Y-133.17
X58.95Y-85.55
X58.95Y-93.17
X58.95Y-125.55
X58.95Y-133.17
X61.49Y-85.55
X61.49Y-93.17
X61.49Y-125.55
X61.49Y-133.17
X64.03Y-85.55
X64.03Y-93.17
X64.03Y-125.55
X64.03Y-133.17
X69.03Y-92.05
X69.03Y-94.55
X69.03Y-131.05
X69.03Y-133.55
X76.17Y-65.55
X76.17Y-73.17
X76.17Y-85.55
X76.17Y-93.17
X76.17Y-105.55
X76.17Y-113.17
X76.17Y-125.55
X76.17Y-133.17
X78.71Y-65.55
X78.71Y-73.17
X78.71Y-85.55
X78.71Y-93.17
X78.71Y-105.55
X78.71Y-113.17
X78.71Y-125.55
X78.71Y-133.17
X81.25Y-65.55
X81.25Y-73.17
X81.25Y-85.55
X81.25Y-93.17
X81.25Y-105.55
X81.25Y-113.17
X81.25Y-125.55
X81.25Y-133.17
X83.79Y-65.55
X83.79Y-73.17
X83.79Y-85.55
X83.79Y-93.17
X83.79Y-105.55
X83.79Y-113.17
X83.79Y-125.55
X83.79Y-133.17
X86.33Y-65.55
X86.33Y-73.17
X86.33Y-85.55
X86.33Y-93.17
X86.33Y-105.55
X86.33Y-113.17
X86.33Y-125.55
X86.33Y-133.17
X88.87Y-65.55
X88.87Y-73.17
X88.87Y-85.55
X88.87Y-93.17
X88.87Y-105.55
X88.87Y-113.17
X88.87Y-125.55
X88.87Y-133.17
X91.41Y-65.55
X91.41Y-73.17
X91.41Y-85.55
X91.41Y-93.17
X91.41Y-105.55
X91.41Y-113.17
X91.41Y-125.55
X91.41Y-133.17
X93.95Y-65.55
X93.95Y-73.17
X93.95Y-85.55
X93.95Y-93.17
X93.95Y-105.55
X93.95Y-113.17
X93.95Y-125.55
X93.95Y-133.17
X96.49Y-65.55
X96.49Y-73.17
X96.49Y-85.55
X96.49Y-93.17
X96.49Y-105.55
X96.49Y-113.17
X96.49Y-125.55
X96.49Y-133.17
X99.03Y-65.55
X99.03Y-73.17
X99.03Y-85.55
X99.03Y-93.17
X99.03Y-105.55
X99.03Y-113.17
X99.03Y-125.55
X99.03Y-133.17
X104.03Y-71.05
X104.03Y-73.55
X104.03Y-91.05
X104.03Y-93.55
X104.03Y-111.05
X104.03Y-113.55
X104.03Y-131.05
X104.03Y-133.55
X111.25Y-65.55
X111.25Y-73.17
X111.25Y-85.55
X111.25Y-93.17
X111.25Y-105.55
X111.25Y-113.17
X111.25Y-125.55
X111.25Y-133.17
X113.79Y-65.55
X113.79Y-73.17
X113.79Y-85.55
X113.79Y-93.17
X113.79Y-105.55
X113.79Y-113.17
X113.79Y-125.55
X113.79Y-133.17
X116.33Y-65.55
X116.33Y-73.17
X116.33Y-85.55
X116.33Y-93.17
X116.33Y-105.55
X116.33Y-113.17
X116.33Y-125.55
X116.33Y-133.17
X118.87Y-65.55
X118.87Y-73.17
X118.87Y-85.55
X118.87Y-93.17
X118.87Y-105.55
X118.87Y-113.17
X118.87Y-125.55
X118.87Y-133.17
X121.41Y-65.55
X121.41Y-73.17
X121.41Y-85.55
X121.41Y-93.17
X121.41Y-105.55
X121.41Y-113.17
X121.41Y-125.55
X121.41Y-133.17
X123.95Y-65.55
X123.95Y-73.17
X123.95Y-85.55
X123.95Y-93.17
X123.95Y-105.55
X123.95Y-113.17
X123.95Y-125.55
X123.95Y-133.17
X126.49Y-65.55
X126.49Y-73.17
X126.49Y-85.55
X126.49Y-93.17
X126.49Y-105.55
X126.49Y-113.17
X126.49Y-125.55
X126.49Y-133.17
X129.03Y-65.55
X129.03Y-73.17
X129.03Y-85.55
X129.03Y-93.17
X129.03Y-105.55
X129.03Y-113.17
X129.03Y-125.55
X129.03Y-133.17
X134.03Y-71.05
X134.03Y-73.55
X134.03Y-91.05
X134.03Y-93.55
X134.03Y-111.05
X134.03Y-113.55
X134.03Y-131.05
X134.03Y-133.55
X141.17Y-65.55
X141.17Y-73.17
X141.17Y-105.55
X141.17Y-113.17
X143.71Y-65.55
X143.71Y-73.17
X143.71Y-105.55
X143.71Y-113.17
X146.25Y-65.55
X146.25Y-73.17
X146.25Y-105.55
X146.25Y-113.17
X148.79Y-65.55
X148.79Y-73.17
X148.79Y-85.55
X148.79Y-93.17
X148.79Y-105.55
X148.79Y-113.17
X148.79Y-125.55
X148.79Y-133.17
X151.33Y-65.55
X151.33Y-73.17
X151.33Y-85.55
X151.33Y-93.17
X151.33Y-105.55
X151.33Y-113.17
X151.33Y-125.55
X151.33Y-133.17
X153.87Y-65.55
X153.87Y-73.17
X153.87Y-85.55
X153.87Y-93.17
X153.87Y-105.55
X153.87Y-113.17
X153.87Y-125.55
X153.87Y-133.17
X156.41Y-65.55
X156.41Y-73.17
X156.41Y-85.55
X156.41Y-93.17
X156.41Y-105.55
X156.41Y-113.17
X156.41Y-125.55
X156.41Y-133.17
X158.95Y-65.55
X158.95Y-73.17
X158.95Y-85.55
X158.95Y-93.17
X158.95Y-105.55
X158.95Y-113.17
X158.95Y-125.55
X158.95Y-133.17
X161.49Y-65.55
X161.49Y-73.17
X161.49Y-85.55
X161.49Y-93.17
X161.49Y-105.55
X161.49Y-113.17
X161.49Y-125.55
X161.49Y-133.17
X164.03Y-65.55
X164.03Y-73.17
X164.03Y-85.55
X164.03Y-93.17
X164.03Y-105.55
X164.03Y-113.17
X164.03Y-125.55
X164.03Y-133.17
X169.03Y-71.55
X169.03Y-74.05
X169.03Y-91.05
X169.03Y-93.55
X169.03Y-111.05
X169.03Y-113.55
X169.03Y-131.05
X169.03Y-133.55
X176.25Y-105.55
X176.25Y-113.17
X178.79Y-65.55
X178.79Y-73.17
X178.79Y-85.55
X178.79Y-93.17
X178.79Y-105.55
X178.79Y-113.17
X178.79Y-125.55
X178.79Y-133.17
X181.33Y-65.55
X181.33Y-73.17
X181.33Y-85.55
X181.33Y-93.17
X181.33Y-105.55
X181.33Y-113.17
X181.33Y-125.55
X181.33Y-133.17
X183.87Y-65.55
X183.87Y-73.17
X183.87Y-85.55
X183.87Y-93.17
X183.87Y-105.55
X183.87Y-113.17
X183.87Y-125.55
X183.87Y-133.17
X186.41Y-65.55
X186.41Y-73.17
X186.41Y-85.55
X186.41Y-93.17
X186.41Y-105.55
X186.41Y-113.17
X186.41Y-125.55
X186.41Y-133.17
X188.95Y-65.55
X188.95Y-73.17
X188.95Y-85.55
X188.95Y-93.17
X188.95Y-105.55
X188.95Y-113.17
X188.95Y-125.55
X188.95Y-133.17
X191.49Y-65.55
X191.49Y-73.17
X191.49Y-85.55
X191.49Y-93.17
X191.49Y-105.55
X191.49Y-113.17
X191.49Y-125.55
X191.49Y-133.17
X194.03Y-65.55
X194.03Y-73.17
X194.03Y-85.55
X194.03Y-93.17
X194.03Y-105.55
X194.03Y-113.17
X194.03Y-125.55
X194.03Y-133.17
X199.03Y-71.55
X199.03Y-74.05
X199.03Y-91.05
X199.03Y-93.55
X199.03Y-111.05
X199.03Y-113.55
X199.03Y-131.05
X199.03Y-133.55
X206.17Y-65.55
X206.17Y-73.17
X206.17Y-125.55
X206.17Y-133.17
X208.71Y-65.55
X208.71Y-73.17
X208.71Y-125.55
X208.71Y-133.17
X211.25Y-65.55
X211.25Y-73.17
X211.25Y-85.55
X211.25Y-93.17
X211.25Y-125.55
X211.25Y-133.17
X213.79Y-65.55
X213.79Y-73.17
X213.79Y-85.55
X213.79Y-93.17
X213.79Y-105.55
X213.79Y-113.17
X213.79Y-125.55
X213.79Y-133.17
X216.33Y-65.55
X216.33Y-73.17
X216.33Y-85.55
X216.33Y-93.17
X216.33Y-105.55
X216.33Y-113.17
X216.33Y-125.55
X216.33Y-133.17
X218.87Y-65.55
X218.87Y-73.17
X218.87Y-85.55
X218.87Y-93.17
X218.87Y-105.55
X218.87Y-113.17
X218.87Y-125.55
X218.87Y-133.17
X221.41Y-65.55
X221.41Y-73.17
X221.41Y-85.55
X221.41Y-93.17
X221.41Y-105.55
X221.41Y-113.17
X221.41Y-125.55
X221.41Y-133.17
X223.95Y-65.55
X223.95Y-73.17
X223.95Y-85.55
X223.95Y-93.17
X223.95Y-105.55
X223.95Y-113.17
X223.95Y-125.55
X223.95Y-133.17
X226.49Y-65.55
X226.49Y-73.17
X226.49Y-85.55
X226.49Y-93.17
X226.49Y-105.55
X226.49Y-113.17
X226.49Y-125.55
X226.49Y-133.17
X229.03Y-65.55
X229.03Y-73.17
X229.03Y-85.55
X229.03Y-93.17
X229.03Y-105.55
X229.03Y-113.17
X229.03Y-125.55
X229.03Y-133.17
X234.03Y-71.05
X234.03Y-73.55
X234.03Y-91.05
X234.03Y-93.55
X234.03Y-111.05
X234.03Y-113.55
X234.03Y-131.05
X234.03Y-133.55
M30
