%TF.GenerationSoftware,KiCad,Pcbnew,9.0.6*%
%TF.CreationDate,2025-12-13T20:54:23-05:00*%
%TF.ProjectId,tb8_cu,7462385f-6375-42e6-9b69-6361645f7063,1.0*%
%TF.SameCoordinates,Original*%
%TF.FileFunction,Copper,L3,Inr*%
%TF.FilePolarity,Positive*%
%FSLAX46Y46*%
G04 Gerber Fmt 4.6, Leading zero omitted, Abs format (unit mm)*
G04 Created by KiCad (PCBNEW 9.0.6) date 2025-12-13 20:54:23*
%MOMM*%
%LPD*%
G01*
G04 APERTURE LIST*
G04 Aperture macros list*
%AMRoundRect*
0 Rectangle with rounded corners*
0 $1 Rounding radius*
0 $2 $3 $4 $5 $6 $7 $8 $9 X,Y pos of 4 corners*
0 Add a 4 corners polygon primitive as box body*
4,1,4,$2,$3,$4,$5,$6,$7,$8,$9,$2,$3,0*
0 Add four circle primitives for the rounded corners*
1,1,$1+$1,$2,$3*
1,1,$1+$1,$4,$5*
1,1,$1+$1,$6,$7*
1,1,$1+$1,$8,$9*
0 Add four rect primitives between the rounded corners*
20,1,$1+$1,$2,$3,$4,$5,0*
20,1,$1+$1,$4,$5,$6,$7,0*
20,1,$1+$1,$6,$7,$8,$9,0*
20,1,$1+$1,$8,$9,$2,$3,0*%
G04 Aperture macros list end*
%TA.AperFunction,ComponentPad*%
%ADD10C,1.600000*%
%TD*%
%TA.AperFunction,ComponentPad*%
%ADD11RoundRect,0.250000X-0.550000X0.950000X-0.550000X-0.950000X0.550000X-0.950000X0.550000X0.950000X0*%
%TD*%
%TA.AperFunction,ComponentPad*%
%ADD12O,1.600000X2.400000*%
%TD*%
%TA.AperFunction,ViaPad*%
%ADD13C,0.600000*%
%TD*%
%TA.AperFunction,Conductor*%
%ADD14C,0.200000*%
%TD*%
G04 APERTURE END LIST*
D10*
%TO.N,+5V*%
%TO.C,C20*%
X104030000Y-133550000D03*
%TO.N,GND*%
X104030000Y-131050000D03*
%TD*%
%TO.N,+5V*%
%TO.C,C17*%
X169030000Y-133550000D03*
%TO.N,GND*%
X169030000Y-131050000D03*
%TD*%
%TO.N,+5V*%
%TO.C,C11*%
X134030000Y-93550000D03*
%TO.N,GND*%
X134030000Y-91050000D03*
%TD*%
%TO.N,+5V*%
%TO.C,C4*%
X234030000Y-133550000D03*
%TO.N,GND*%
X234030000Y-131050000D03*
%TD*%
%TO.N,+5V*%
%TO.C,C2*%
X199030000Y-74050000D03*
%TO.N,GND*%
X199030000Y-71550000D03*
%TD*%
D11*
%TO.N,i9*%
%TO.C,U12*%
X129030000Y-105550000D03*
D12*
%TO.N,o9*%
X126490000Y-105550000D03*
%TO.N,o8*%
X123950000Y-105550000D03*
%TO.N,Net-(U11-~{BO})*%
X121410000Y-105550000D03*
%TO.N,Net-(U11-~{CO})*%
X118870000Y-105550000D03*
%TO.N,o10*%
X116330000Y-105550000D03*
%TO.N,o11*%
X113790000Y-105550000D03*
%TO.N,GND*%
X111250000Y-105550000D03*
%TO.N,i11*%
X111250000Y-113170000D03*
%TO.N,i10*%
X113790000Y-113170000D03*
%TO.N,cpl*%
X116330000Y-113170000D03*
%TO.N,Net-(U12-~{CO})*%
X118870000Y-113170000D03*
%TO.N,Net-(U12-~{BO})*%
X121410000Y-113170000D03*
%TO.N,r*%
X123950000Y-113170000D03*
%TO.N,i8*%
X126490000Y-113170000D03*
%TO.N,+5V*%
X129030000Y-113170000D03*
%TD*%
D11*
%TO.N,tadr0*%
%TO.C,U16*%
X164030000Y-85550000D03*
D12*
%TO.N,t_wr*%
X161490000Y-85550000D03*
%TO.N,Net-(U18A-~{S})*%
X158950000Y-85550000D03*
X156410000Y-85550000D03*
X153870000Y-85550000D03*
%TO.N,Net-(U14-Load)*%
X151330000Y-85550000D03*
%TO.N,GND*%
X148790000Y-85550000D03*
%TO.N,Net-(U18B-~{S})*%
X148790000Y-93170000D03*
%TO.N,tadr1*%
X151330000Y-93170000D03*
%TO.N,t_wr*%
X153870000Y-93170000D03*
%TO.N,Net-(U15-Load)*%
X156410000Y-93170000D03*
%TO.N,Net-(U18B-~{S})*%
X158950000Y-93170000D03*
X161490000Y-93170000D03*
%TO.N,+5V*%
X164030000Y-93170000D03*
%TD*%
D11*
%TO.N,i13*%
%TO.C,U13*%
X129030000Y-125550000D03*
D12*
%TO.N,o13*%
X126490000Y-125550000D03*
%TO.N,o12*%
X123950000Y-125550000D03*
%TO.N,Net-(U12-~{BO})*%
X121410000Y-125550000D03*
%TO.N,Net-(U12-~{CO})*%
X118870000Y-125550000D03*
%TO.N,o14*%
X116330000Y-125550000D03*
%TO.N,o15*%
X113790000Y-125550000D03*
%TO.N,GND*%
X111250000Y-125550000D03*
%TO.N,i15*%
X111250000Y-133170000D03*
%TO.N,i14*%
X113790000Y-133170000D03*
%TO.N,cpl*%
X116330000Y-133170000D03*
%TO.N,unconnected-(U13-~{CO}-Pad12)*%
X118870000Y-133170000D03*
%TO.N,unconnected-(U13-~{BO}-Pad13)*%
X121410000Y-133170000D03*
%TO.N,r*%
X123950000Y-133170000D03*
%TO.N,i12*%
X126490000Y-133170000D03*
%TO.N,+5V*%
X129030000Y-133170000D03*
%TD*%
D10*
%TO.N,+5V*%
%TO.C,C12*%
X134030000Y-113550000D03*
%TO.N,GND*%
X134030000Y-111050000D03*
%TD*%
D11*
%TO.N,Net-(U17-Pad1)*%
%TO.C,U17*%
X164030000Y-125550000D03*
D12*
%TO.N,exc*%
X161490000Y-125550000D03*
%TO.N,cpl*%
X158950000Y-125550000D03*
%TO.N,ldi*%
X156410000Y-125550000D03*
%TO.N,Net-(U17-Pad1)*%
X153870000Y-125550000D03*
%TO.N,Net-(U18A-~{R})*%
X151330000Y-125550000D03*
%TO.N,GND*%
X148790000Y-125550000D03*
%TO.N,Net-(U19-OE)*%
X148790000Y-133170000D03*
%TO.N,tadr0*%
X151330000Y-133170000D03*
%TO.N,t_rd*%
X153870000Y-133170000D03*
%TO.N,Net-(U20-OE)*%
X156410000Y-133170000D03*
%TO.N,tadr1*%
X158950000Y-133170000D03*
%TO.N,t_rd*%
X161490000Y-133170000D03*
%TO.N,+5V*%
X164030000Y-133170000D03*
%TD*%
D11*
%TO.N,cmp*%
%TO.C,U2*%
X194030000Y-65550000D03*
D12*
%TO.N,stc_i*%
X191490000Y-65550000D03*
%TO.N,Net-(U2-Pad3)*%
X188950000Y-65550000D03*
%TO.N,Net-(U2-Pad4)*%
X186410000Y-65550000D03*
%TO.N,exc*%
X183870000Y-65550000D03*
%TO.N,t_wr*%
X181330000Y-65550000D03*
%TO.N,GND*%
X178790000Y-65550000D03*
%TO.N,t_rd*%
X178790000Y-73170000D03*
%TO.N,exc*%
X181330000Y-73170000D03*
%TO.N,ld_i*%
X183870000Y-73170000D03*
%TO.N,t_rdi*%
X186410000Y-73170000D03*
%TO.N,ldi_i*%
X188950000Y-73170000D03*
%TO.N,exc*%
X191490000Y-73170000D03*
%TO.N,+5V*%
X194030000Y-73170000D03*
%TD*%
D11*
%TO.N,{slash}r*%
%TO.C,U1*%
X64030000Y-125550000D03*
D12*
%TO.N,ldi*%
X61490000Y-125550000D03*
%TO.N,clk_i*%
X58950000Y-125550000D03*
%TO.N,+5V*%
X56410000Y-125550000D03*
%TO.N,exc*%
X53870000Y-125550000D03*
%TO.N,ldi*%
X51330000Y-125550000D03*
%TO.N,GND*%
X48790000Y-125550000D03*
%TO.N,unconnected-(U1B-~{Q}-Pad8)*%
X48790000Y-133170000D03*
%TO.N,unconnected-(U1B-Q-Pad9)*%
X51330000Y-133170000D03*
%TO.N,unconnected-(U1B-~{S}-Pad10)*%
X53870000Y-133170000D03*
%TO.N,unconnected-(U1B-C-Pad11)*%
X56410000Y-133170000D03*
%TO.N,unconnected-(U1B-D-Pad12)*%
X58950000Y-133170000D03*
%TO.N,unconnected-(U1B-~{R}-Pad13)*%
X61490000Y-133170000D03*
%TO.N,+5V*%
X64030000Y-133170000D03*
%TD*%
D11*
%TO.N,exc*%
%TO.C,U22*%
X99030000Y-105550000D03*
D12*
%TO.N,o8*%
X96490000Y-105550000D03*
%TO.N,o9*%
X93950000Y-105550000D03*
%TO.N,o10*%
X91410000Y-105550000D03*
%TO.N,o11*%
X88870000Y-105550000D03*
%TO.N,o12*%
X86330000Y-105550000D03*
%TO.N,o13*%
X83790000Y-105550000D03*
%TO.N,o14*%
X81250000Y-105550000D03*
%TO.N,o15*%
X78710000Y-105550000D03*
%TO.N,GND*%
X76170000Y-105550000D03*
%TO.N,+5V*%
X76170000Y-113170000D03*
%TO.N,a15*%
X78710000Y-113170000D03*
%TO.N,a14*%
X81250000Y-113170000D03*
%TO.N,a13*%
X83790000Y-113170000D03*
%TO.N,a12*%
X86330000Y-113170000D03*
%TO.N,a11*%
X88870000Y-113170000D03*
%TO.N,a10*%
X91410000Y-113170000D03*
%TO.N,a9*%
X93950000Y-113170000D03*
%TO.N,a8*%
X96490000Y-113170000D03*
%TO.N,+5V*%
X99030000Y-113170000D03*
%TD*%
D10*
%TO.N,+5V*%
%TO.C,C13*%
X134030000Y-133550000D03*
%TO.N,GND*%
X134030000Y-131050000D03*
%TD*%
%TO.N,+5V*%
%TO.C,C22*%
X104030000Y-113550000D03*
%TO.N,GND*%
X104030000Y-111050000D03*
%TD*%
%TO.N,+5V*%
%TO.C,C3*%
X234030000Y-113550000D03*
%TO.N,GND*%
X234030000Y-111050000D03*
%TD*%
D11*
%TO.N,t_rdi*%
%TO.C,U8*%
X194030000Y-125550000D03*
D12*
X191490000Y-125550000D03*
%TO.N,Net-(U7-OE)*%
X188950000Y-125550000D03*
%TO.N,t_wr*%
X186410000Y-125550000D03*
X183870000Y-125550000D03*
%TO.N,Net-(U9-OE)*%
X181330000Y-125550000D03*
%TO.N,GND*%
X178790000Y-125550000D03*
%TO.N,r*%
X178790000Y-133170000D03*
%TO.N,{slash}r*%
X181330000Y-133170000D03*
X183870000Y-133170000D03*
%TO.N,Net-(U17-Pad1)*%
X186410000Y-133170000D03*
%TO.N,Net-(U3-Pad11)*%
X188950000Y-133170000D03*
X191490000Y-133170000D03*
%TO.N,+5V*%
X194030000Y-133170000D03*
%TD*%
D10*
%TO.N,+5V*%
%TO.C,C8*%
X199030000Y-133550000D03*
%TO.N,GND*%
X199030000Y-131050000D03*
%TD*%
%TO.N,+5V*%
%TO.C,C16*%
X169030000Y-93550000D03*
%TO.N,GND*%
X169030000Y-91050000D03*
%TD*%
D11*
%TO.N,Net-(U7-OE)*%
%TO.C,U7*%
X229030000Y-65550000D03*
D12*
%TO.N,ta0*%
X226490000Y-65550000D03*
%TO.N,ta1*%
X223950000Y-65550000D03*
%TO.N,ta2*%
X221410000Y-65550000D03*
%TO.N,ta3*%
X218870000Y-65550000D03*
%TO.N,ta4*%
X216330000Y-65550000D03*
%TO.N,ta5*%
X213790000Y-65550000D03*
%TO.N,GND*%
X211250000Y-65550000D03*
X208710000Y-65550000D03*
X206170000Y-65550000D03*
%TO.N,+5V*%
X206170000Y-73170000D03*
%TO.N,td7*%
X208710000Y-73170000D03*
%TO.N,td6*%
X211250000Y-73170000D03*
%TO.N,td5*%
X213790000Y-73170000D03*
%TO.N,td4*%
X216330000Y-73170000D03*
%TO.N,td3*%
X218870000Y-73170000D03*
%TO.N,td2*%
X221410000Y-73170000D03*
%TO.N,td1*%
X223950000Y-73170000D03*
%TO.N,td0*%
X226490000Y-73170000D03*
%TO.N,+5V*%
X229030000Y-73170000D03*
%TD*%
D11*
%TO.N,Net-(U19-OE)*%
%TO.C,U19*%
X99030000Y-85550000D03*
D12*
%TO.N,o0*%
X96490000Y-85550000D03*
%TO.N,o1*%
X93950000Y-85550000D03*
%TO.N,o2*%
X91410000Y-85550000D03*
%TO.N,o3*%
X88870000Y-85550000D03*
%TO.N,o4*%
X86330000Y-85550000D03*
%TO.N,o5*%
X83790000Y-85550000D03*
%TO.N,o6*%
X81250000Y-85550000D03*
%TO.N,o7*%
X78710000Y-85550000D03*
%TO.N,GND*%
X76170000Y-85550000D03*
%TO.N,+5V*%
X76170000Y-93170000D03*
%TO.N,td7*%
X78710000Y-93170000D03*
%TO.N,td6*%
X81250000Y-93170000D03*
%TO.N,td5*%
X83790000Y-93170000D03*
%TO.N,td4*%
X86330000Y-93170000D03*
%TO.N,td3*%
X88870000Y-93170000D03*
%TO.N,td2*%
X91410000Y-93170000D03*
%TO.N,td1*%
X93950000Y-93170000D03*
%TO.N,td0*%
X96490000Y-93170000D03*
%TO.N,+5V*%
X99030000Y-93170000D03*
%TD*%
D10*
%TO.N,+5V*%
%TO.C,C1*%
X69030000Y-133550000D03*
%TO.N,GND*%
X69030000Y-131050000D03*
%TD*%
D11*
%TO.N,GND*%
%TO.C,U15*%
X164030000Y-105550000D03*
D12*
%TO.N,td0*%
X161490000Y-105550000D03*
%TO.N,td1*%
X158950000Y-105550000D03*
%TO.N,td2*%
X156410000Y-105550000D03*
%TO.N,td3*%
X153870000Y-105550000D03*
%TO.N,td4*%
X151330000Y-105550000D03*
%TO.N,td5*%
X148790000Y-105550000D03*
%TO.N,td6*%
X146250000Y-105550000D03*
%TO.N,td7*%
X143710000Y-105550000D03*
%TO.N,GND*%
X141170000Y-105550000D03*
%TO.N,Net-(U15-Load)*%
X141170000Y-113170000D03*
%TO.N,i15*%
X143710000Y-113170000D03*
%TO.N,i14*%
X146250000Y-113170000D03*
%TO.N,i13*%
X148790000Y-113170000D03*
%TO.N,i12*%
X151330000Y-113170000D03*
%TO.N,i11*%
X153870000Y-113170000D03*
%TO.N,i10*%
X156410000Y-113170000D03*
%TO.N,i9*%
X158950000Y-113170000D03*
%TO.N,i8*%
X161490000Y-113170000D03*
%TO.N,+5V*%
X164030000Y-113170000D03*
%TD*%
D10*
%TO.N,+5V*%
%TO.C,C19*%
X104030000Y-93550000D03*
%TO.N,GND*%
X104030000Y-91050000D03*
%TD*%
%TO.N,+5V*%
%TO.C,C7*%
X234030000Y-73550000D03*
%TO.N,GND*%
X234030000Y-71050000D03*
%TD*%
D11*
%TO.N,Net-(U2-Pad3)*%
%TO.C,U3*%
X229030000Y-105550000D03*
D12*
%TO.N,st_i*%
X226490000Y-105550000D03*
%TO.N,Net-(U2-Pad4)*%
X223950000Y-105550000D03*
%TO.N,ta4*%
X221410000Y-105550000D03*
%TO.N,ta5*%
X218870000Y-105550000D03*
%TO.N,Net-(U6-~{E2})*%
X216330000Y-105550000D03*
%TO.N,GND*%
X213790000Y-105550000D03*
%TO.N,Net-(U9-Load)*%
X213790000Y-113170000D03*
%TO.N,t_rd*%
X216330000Y-113170000D03*
%TO.N,t_rdi*%
X218870000Y-113170000D03*
%TO.N,Net-(U3-Pad11)*%
X221410000Y-113170000D03*
%TO.N,Net-(U18B-~{Q})*%
X223950000Y-113170000D03*
%TO.N,Net-(U18A-~{Q})*%
X226490000Y-113170000D03*
%TO.N,+5V*%
X229030000Y-113170000D03*
%TD*%
D11*
%TO.N,GND*%
%TO.C,U14*%
X164030000Y-65550000D03*
D12*
%TO.N,td0*%
X161490000Y-65550000D03*
%TO.N,td1*%
X158950000Y-65550000D03*
%TO.N,td2*%
X156410000Y-65550000D03*
%TO.N,td3*%
X153870000Y-65550000D03*
%TO.N,td4*%
X151330000Y-65550000D03*
%TO.N,td5*%
X148790000Y-65550000D03*
%TO.N,td6*%
X146250000Y-65550000D03*
%TO.N,td7*%
X143710000Y-65550000D03*
%TO.N,GND*%
X141170000Y-65550000D03*
%TO.N,Net-(U14-Load)*%
X141170000Y-73170000D03*
%TO.N,i7*%
X143710000Y-73170000D03*
%TO.N,i6*%
X146250000Y-73170000D03*
%TO.N,i5*%
X148790000Y-73170000D03*
%TO.N,i4*%
X151330000Y-73170000D03*
%TO.N,i3*%
X153870000Y-73170000D03*
%TO.N,i2*%
X156410000Y-73170000D03*
%TO.N,i1*%
X158950000Y-73170000D03*
%TO.N,i0*%
X161490000Y-73170000D03*
%TO.N,+5V*%
X164030000Y-73170000D03*
%TD*%
D10*
%TO.N,+5V*%
%TO.C,C21*%
X104030000Y-73550000D03*
%TO.N,GND*%
X104030000Y-71050000D03*
%TD*%
D11*
%TO.N,i1*%
%TO.C,U10*%
X129030000Y-65550000D03*
D12*
%TO.N,o1*%
X126490000Y-65550000D03*
%TO.N,o0*%
X123950000Y-65550000D03*
%TO.N,+5V*%
X121410000Y-65550000D03*
%TO.N,ldi*%
X118870000Y-65550000D03*
%TO.N,o2*%
X116330000Y-65550000D03*
%TO.N,o3*%
X113790000Y-65550000D03*
%TO.N,GND*%
X111250000Y-65550000D03*
%TO.N,i3*%
X111250000Y-73170000D03*
%TO.N,i2*%
X113790000Y-73170000D03*
%TO.N,cpl*%
X116330000Y-73170000D03*
%TO.N,Net-(U10-~{CO})*%
X118870000Y-73170000D03*
%TO.N,Net-(U10-~{BO})*%
X121410000Y-73170000D03*
%TO.N,r*%
X123950000Y-73170000D03*
%TO.N,i0*%
X126490000Y-73170000D03*
%TO.N,+5V*%
X129030000Y-73170000D03*
%TD*%
D10*
%TO.N,+5V*%
%TO.C,C6*%
X199030000Y-113550000D03*
%TO.N,GND*%
X199030000Y-111050000D03*
%TD*%
D11*
%TO.N,Net-(U9-OE)*%
%TO.C,U9*%
X64030000Y-85550000D03*
D12*
%TO.N,td0*%
X61490000Y-85550000D03*
%TO.N,td1*%
X58950000Y-85550000D03*
%TO.N,td2*%
X56410000Y-85550000D03*
%TO.N,td3*%
X53870000Y-85550000D03*
%TO.N,td4*%
X51330000Y-85550000D03*
%TO.N,td5*%
X48790000Y-85550000D03*
%TO.N,td6*%
X46250000Y-85550000D03*
%TO.N,td7*%
X43710000Y-85550000D03*
%TO.N,GND*%
X41170000Y-85550000D03*
%TO.N,Net-(U9-Load)*%
X41170000Y-93170000D03*
%TO.N,td7*%
X43710000Y-93170000D03*
%TO.N,td6*%
X46250000Y-93170000D03*
%TO.N,td5*%
X48790000Y-93170000D03*
%TO.N,td4*%
X51330000Y-93170000D03*
%TO.N,td3*%
X53870000Y-93170000D03*
%TO.N,td2*%
X56410000Y-93170000D03*
%TO.N,td1*%
X58950000Y-93170000D03*
%TO.N,td0*%
X61490000Y-93170000D03*
%TO.N,+5V*%
X64030000Y-93170000D03*
%TD*%
D10*
%TO.N,+5V*%
%TO.C,C15*%
X169030000Y-113550000D03*
%TO.N,GND*%
X169030000Y-111050000D03*
%TD*%
%TO.N,+5V*%
%TO.C,C14*%
X169030000Y-74050000D03*
%TO.N,GND*%
X169030000Y-71550000D03*
%TD*%
D11*
%TO.N,Net-(U4-Q6)*%
%TO.C,U5*%
X229030000Y-85550000D03*
D12*
%TO.N,Net-(U4-Q7)*%
X226490000Y-85550000D03*
%TO.N,GND*%
X223950000Y-85550000D03*
X221410000Y-85550000D03*
X218870000Y-85550000D03*
%TO.N,+5V*%
X216330000Y-85550000D03*
%TO.N,unconnected-(U5-Y7-Pad7)*%
X213790000Y-85550000D03*
%TO.N,GND*%
X211250000Y-85550000D03*
%TO.N,unconnected-(U5-Y6-Pad9)*%
X211250000Y-93170000D03*
%TO.N,unconnected-(U5-Y5-Pad10)*%
X213790000Y-93170000D03*
%TO.N,unconnected-(U5-Y4-Pad11)*%
X216330000Y-93170000D03*
%TO.N,stc_i*%
X218870000Y-93170000D03*
%TO.N,st_i*%
X221410000Y-93170000D03*
%TO.N,ldi_i*%
X223950000Y-93170000D03*
%TO.N,ld_i*%
X226490000Y-93170000D03*
%TO.N,+5V*%
X229030000Y-93170000D03*
%TD*%
D11*
%TO.N,exc*%
%TO.C,U21*%
X99030000Y-65550000D03*
D12*
%TO.N,o0*%
X96490000Y-65550000D03*
%TO.N,o1*%
X93950000Y-65550000D03*
%TO.N,o2*%
X91410000Y-65550000D03*
%TO.N,o3*%
X88870000Y-65550000D03*
%TO.N,o4*%
X86330000Y-65550000D03*
%TO.N,o5*%
X83790000Y-65550000D03*
%TO.N,o6*%
X81250000Y-65550000D03*
%TO.N,o7*%
X78710000Y-65550000D03*
%TO.N,GND*%
X76170000Y-65550000D03*
%TO.N,+5V*%
X76170000Y-73170000D03*
%TO.N,a7*%
X78710000Y-73170000D03*
%TO.N,a6*%
X81250000Y-73170000D03*
%TO.N,a5*%
X83790000Y-73170000D03*
%TO.N,a4*%
X86330000Y-73170000D03*
%TO.N,a3*%
X88870000Y-73170000D03*
%TO.N,a2*%
X91410000Y-73170000D03*
%TO.N,a1*%
X93950000Y-73170000D03*
%TO.N,a0*%
X96490000Y-73170000D03*
%TO.N,+5V*%
X99030000Y-73170000D03*
%TD*%
D10*
%TO.N,+5V*%
%TO.C,C18*%
X199030000Y-93550000D03*
%TO.N,GND*%
X199030000Y-91050000D03*
%TD*%
D11*
%TO.N,i5*%
%TO.C,U11*%
X129030000Y-85550000D03*
D12*
%TO.N,o5*%
X126490000Y-85550000D03*
%TO.N,o4*%
X123950000Y-85550000D03*
%TO.N,Net-(U10-~{BO})*%
X121410000Y-85550000D03*
%TO.N,Net-(U10-~{CO})*%
X118870000Y-85550000D03*
%TO.N,o6*%
X116330000Y-85550000D03*
%TO.N,o7*%
X113790000Y-85550000D03*
%TO.N,GND*%
X111250000Y-85550000D03*
%TO.N,i7*%
X111250000Y-93170000D03*
%TO.N,i6*%
X113790000Y-93170000D03*
%TO.N,cpl*%
X116330000Y-93170000D03*
%TO.N,Net-(U11-~{CO})*%
X118870000Y-93170000D03*
%TO.N,Net-(U11-~{BO})*%
X121410000Y-93170000D03*
%TO.N,r*%
X123950000Y-93170000D03*
%TO.N,i4*%
X126490000Y-93170000D03*
%TO.N,+5V*%
X129030000Y-93170000D03*
%TD*%
D11*
%TO.N,ta0*%
%TO.C,U6*%
X194030000Y-105550000D03*
D12*
%TO.N,ta1*%
X191490000Y-105550000D03*
%TO.N,ta2*%
X188950000Y-105550000D03*
%TO.N,ta3*%
X186410000Y-105550000D03*
%TO.N,Net-(U6-~{E2})*%
X183870000Y-105550000D03*
%TO.N,+5V*%
X181330000Y-105550000D03*
%TO.N,unconnected-(U6-Y7-Pad7)*%
X178790000Y-105550000D03*
%TO.N,GND*%
X176250000Y-105550000D03*
%TO.N,unconnected-(U6-Y6-Pad9)*%
X176250000Y-113170000D03*
%TO.N,unconnected-(U6-Y5-Pad10)*%
X178790000Y-113170000D03*
%TO.N,unconnected-(U6-Y4-Pad11)*%
X181330000Y-113170000D03*
%TO.N,unconnected-(U6-Y3-Pad12)*%
X183870000Y-113170000D03*
%TO.N,unconnected-(U6-Y2-Pad13)*%
X186410000Y-113170000D03*
%TO.N,tadr1*%
X188950000Y-113170000D03*
%TO.N,tadr0*%
X191490000Y-113170000D03*
%TO.N,+5V*%
X194030000Y-113170000D03*
%TD*%
D11*
%TO.N,GND*%
%TO.C,U4*%
X229030000Y-125550000D03*
D12*
%TO.N,d0*%
X226490000Y-125550000D03*
%TO.N,d1*%
X223950000Y-125550000D03*
%TO.N,d2*%
X221410000Y-125550000D03*
%TO.N,d3*%
X218870000Y-125550000D03*
%TO.N,d4*%
X216330000Y-125550000D03*
%TO.N,d5*%
X213790000Y-125550000D03*
%TO.N,d6*%
X211250000Y-125550000D03*
%TO.N,d7*%
X208710000Y-125550000D03*
%TO.N,GND*%
X206170000Y-125550000D03*
%TO.N,ldi*%
X206170000Y-133170000D03*
%TO.N,Net-(U4-Q7)*%
X208710000Y-133170000D03*
%TO.N,Net-(U4-Q6)*%
X211250000Y-133170000D03*
%TO.N,ta5*%
X213790000Y-133170000D03*
%TO.N,ta4*%
X216330000Y-133170000D03*
%TO.N,ta3*%
X218870000Y-133170000D03*
%TO.N,ta2*%
X221410000Y-133170000D03*
%TO.N,ta1*%
X223950000Y-133170000D03*
%TO.N,ta0*%
X226490000Y-133170000D03*
%TO.N,+5V*%
X229030000Y-133170000D03*
%TD*%
D11*
%TO.N,Net-(U18A-~{R})*%
%TO.C,U18*%
X194030000Y-85550000D03*
D12*
%TO.N,GND*%
X191490000Y-85550000D03*
X188950000Y-85550000D03*
%TO.N,Net-(U18A-~{S})*%
X186410000Y-85550000D03*
%TO.N,unconnected-(U18A-Q-Pad5)*%
X183870000Y-85550000D03*
%TO.N,Net-(U18A-~{Q})*%
X181330000Y-85550000D03*
%TO.N,GND*%
X178790000Y-85550000D03*
%TO.N,Net-(U18B-~{Q})*%
X178790000Y-93170000D03*
%TO.N,unconnected-(U18B-Q-Pad9)*%
X181330000Y-93170000D03*
%TO.N,Net-(U18B-~{S})*%
X183870000Y-93170000D03*
%TO.N,GND*%
X186410000Y-93170000D03*
X188950000Y-93170000D03*
%TO.N,Net-(U18A-~{R})*%
X191490000Y-93170000D03*
%TO.N,+5V*%
X194030000Y-93170000D03*
%TD*%
D10*
%TO.N,+5V*%
%TO.C,C10*%
X134030000Y-73550000D03*
%TO.N,GND*%
X134030000Y-71050000D03*
%TD*%
%TO.N,+5V*%
%TO.C,C9*%
X69030000Y-94550000D03*
%TO.N,GND*%
X69030000Y-92050000D03*
%TD*%
D11*
%TO.N,Net-(U20-OE)*%
%TO.C,U20*%
X99030000Y-125550000D03*
D12*
%TO.N,o8*%
X96490000Y-125550000D03*
%TO.N,o9*%
X93950000Y-125550000D03*
%TO.N,o10*%
X91410000Y-125550000D03*
%TO.N,o11*%
X88870000Y-125550000D03*
%TO.N,o12*%
X86330000Y-125550000D03*
%TO.N,o13*%
X83790000Y-125550000D03*
%TO.N,o14*%
X81250000Y-125550000D03*
%TO.N,o15*%
X78710000Y-125550000D03*
%TO.N,GND*%
X76170000Y-125550000D03*
%TO.N,+5V*%
X76170000Y-133170000D03*
%TO.N,td7*%
X78710000Y-133170000D03*
%TO.N,td6*%
X81250000Y-133170000D03*
%TO.N,td5*%
X83790000Y-133170000D03*
%TO.N,td4*%
X86330000Y-133170000D03*
%TO.N,td3*%
X88870000Y-133170000D03*
%TO.N,td2*%
X91410000Y-133170000D03*
%TO.N,td1*%
X93950000Y-133170000D03*
%TO.N,td0*%
X96490000Y-133170000D03*
%TO.N,+5V*%
X99030000Y-133170000D03*
%TD*%
D10*
%TO.N,+5V*%
%TO.C,C5*%
X234030000Y-93550000D03*
%TO.N,GND*%
X234030000Y-91050000D03*
%TD*%
D13*
%TO.N,a3*%
X88800000Y-77600000D03*
%TO.N,a0*%
X96400000Y-75800000D03*
%TO.N,ta4*%
X177600000Y-98802000D03*
X203800000Y-127800000D03*
%TO.N,a12*%
X86400000Y-118050000D03*
%TO.N,a7*%
X78600000Y-80000000D03*
%TO.N,a5*%
X83800000Y-78800000D03*
%TO.N,cmp*%
X33200000Y-121400000D03*
%TO.N,a15*%
X78800000Y-119850000D03*
%TO.N,ta0*%
X238600000Y-62600000D03*
X195400000Y-100400000D03*
%TO.N,ta1*%
X238000000Y-62000000D03*
X193100000Y-100100000D03*
%TO.N,a2*%
X91400000Y-77000000D03*
%TO.N,a10*%
X91400000Y-116850000D03*
%TO.N,a6*%
X81200000Y-79400000D03*
%TO.N,a11*%
X88800000Y-117450000D03*
%TO.N,t_rd*%
X34600000Y-127600000D03*
X176830000Y-117830000D03*
%TO.N,ta3*%
X236800000Y-60800000D03*
X188300000Y-100003000D03*
%TO.N,a4*%
X86200500Y-78200500D03*
%TO.N,a13*%
X83800000Y-118650000D03*
%TO.N,ta2*%
X190600000Y-100003000D03*
X237400000Y-61400000D03*
%TO.N,a9*%
X94000000Y-116250000D03*
%TO.N,{slash}r*%
X181200000Y-135800000D03*
%TO.N,a14*%
X81200000Y-119250000D03*
%TO.N,ta5*%
X176800000Y-99400000D03*
X203200000Y-128400000D03*
%TO.N,t_wr*%
X36800000Y-131400000D03*
X174200000Y-96400000D03*
%TO.N,a8*%
X96400000Y-115800000D03*
%TO.N,exc*%
X133200000Y-108400000D03*
X166400000Y-114200000D03*
X64400000Y-111200000D03*
X166400000Y-116000000D03*
%TO.N,a1*%
X94000000Y-76400000D03*
%TO.N,t_rdi*%
X203800000Y-94000000D03*
X203800000Y-89765544D03*
%TO.N,ld_i*%
X197740000Y-78450000D03*
X197740000Y-87250000D03*
%TO.N,stc_i*%
X200540000Y-89250000D03*
%TO.N,ldi_i*%
X198940000Y-77250000D03*
X198940000Y-88450000D03*
%TO.N,Net-(U2-Pad3)*%
X202940000Y-62050000D03*
X207740000Y-101850000D03*
%TO.N,Net-(U2-Pad4)*%
X207140000Y-102650000D03*
X202140000Y-61250000D03*
%TO.N,Net-(U18B-~{Q})*%
X206540000Y-108650000D03*
%TO.N,Net-(U3-Pad11)*%
X221410000Y-117000000D03*
%TO.N,Net-(U18A-~{Q})*%
X207340000Y-107850000D03*
X196140000Y-82650000D03*
%TO.N,Net-(U4-Q7)*%
X209940000Y-83450000D03*
%TO.N,Net-(U4-Q6)*%
X212540000Y-82450000D03*
%TO.N,tadr0*%
X162800000Y-118600000D03*
%TO.N,tadr1*%
X158950000Y-130000000D03*
X152600000Y-117000000D03*
%TO.N,Net-(U7-OE)*%
X227700000Y-116300000D03*
%TO.N,Net-(U9-OE)*%
X170400000Y-103000000D03*
%TO.N,r*%
X178800000Y-137000000D03*
%TO.N,Net-(U17-Pad1)*%
X176200000Y-128400000D03*
%TO.N,cpl*%
X120200000Y-119800000D03*
X149000000Y-119800000D03*
%TO.N,i7*%
X143800000Y-78000000D03*
%TO.N,i6*%
X146200000Y-78000000D03*
%TO.N,i4*%
X151400000Y-79200000D03*
%TO.N,i5*%
X148800000Y-78000000D03*
%TO.N,i11*%
X153800000Y-119000000D03*
X117600000Y-119800000D03*
%TO.N,i10*%
X155400000Y-119000000D03*
X117600000Y-118600000D03*
%TO.N,i15*%
X126400000Y-128200000D03*
%TO.N,i14*%
X127400000Y-128200000D03*
%TO.N,Net-(U15-Load)*%
X155400000Y-110600000D03*
%TO.N,Net-(U20-OE)*%
X99030000Y-128430000D03*
X132200000Y-128800000D03*
%TO.N,Net-(U18A-~{R})*%
X187800000Y-119600000D03*
X185200000Y-100003000D03*
%TD*%
D14*
%TO.N,a3*%
X88870000Y-77530000D02*
X88800000Y-77600000D01*
X88870000Y-73170000D02*
X88870000Y-77530000D01*
%TO.N,a0*%
X96400000Y-75800000D02*
X96490000Y-75710000D01*
X96490000Y-75710000D02*
X96490000Y-73170000D01*
%TO.N,ta4*%
X221410000Y-105550000D02*
X221410000Y-107190000D01*
X216330000Y-131470000D02*
X216330000Y-133170000D01*
X217540000Y-111060000D02*
X217540000Y-130260000D01*
X220140000Y-102540000D02*
X221410000Y-103810000D01*
X221410000Y-107190000D02*
X217540000Y-111060000D01*
X203800000Y-106800000D02*
X203800000Y-127800000D01*
X220140000Y-70940000D02*
X220140000Y-102540000D01*
X177600000Y-98802000D02*
X177602000Y-98800000D01*
X217540000Y-130260000D02*
X216330000Y-131470000D01*
X216330000Y-65550000D02*
X216330000Y-67130000D01*
X177602000Y-98800000D02*
X195800000Y-98800000D01*
X216330000Y-67130000D02*
X220140000Y-70940000D01*
X221410000Y-103810000D02*
X221410000Y-105550000D01*
X195800000Y-98800000D02*
X203800000Y-106800000D01*
%TO.N,td1*%
X158950000Y-103350000D02*
X158950000Y-105550000D01*
X92852000Y-128452000D02*
X76547851Y-128452000D01*
X58950000Y-110854149D02*
X58950000Y-93170000D01*
X58950000Y-93170000D02*
X58950000Y-85550000D01*
X157600000Y-102000000D02*
X158950000Y-103350000D01*
X93950000Y-133170000D02*
X93950000Y-129550000D01*
X93950000Y-129550000D02*
X92852000Y-128452000D01*
X76547851Y-128452000D02*
X58950000Y-110854149D01*
X158950000Y-67050000D02*
X157600000Y-68400000D01*
X157600000Y-68400000D02*
X157600000Y-102000000D01*
X158950000Y-65550000D02*
X158950000Y-67050000D01*
%TO.N,td2*%
X156410000Y-67190000D02*
X155200000Y-68400000D01*
X56410000Y-85550000D02*
X56410000Y-93170000D01*
X90053000Y-128853000D02*
X76381751Y-128853000D01*
X156410000Y-104010000D02*
X156410000Y-105550000D01*
X56410000Y-108881249D02*
X56410000Y-93170000D01*
X155200000Y-102800000D02*
X156410000Y-104010000D01*
X155200000Y-68400000D02*
X155200000Y-102800000D01*
X76381751Y-128853000D02*
X56410000Y-108881249D01*
X91410000Y-130210000D02*
X90053000Y-128853000D01*
X91410000Y-133170000D02*
X91410000Y-130210000D01*
X156410000Y-65550000D02*
X156410000Y-67190000D01*
%TO.N,a12*%
X86330000Y-117980000D02*
X86330000Y-113170000D01*
X86400000Y-118050000D02*
X86330000Y-117980000D01*
%TO.N,td0*%
X95251000Y-128051000D02*
X76713951Y-128051000D01*
X76713951Y-128051000D02*
X61490000Y-112827049D01*
X61490000Y-85550000D02*
X61490000Y-93170000D01*
X61490000Y-112827049D02*
X61490000Y-93170000D01*
X160200000Y-104260000D02*
X161490000Y-105550000D01*
X96490000Y-129290000D02*
X95251000Y-128051000D01*
X161490000Y-67110000D02*
X160200000Y-68400000D01*
X160200000Y-68400000D02*
X160200000Y-104260000D01*
X96490000Y-133170000D02*
X96490000Y-129290000D01*
X161490000Y-65550000D02*
X161490000Y-67110000D01*
%TO.N,a7*%
X78600000Y-80000000D02*
X78710000Y-79890000D01*
X78710000Y-79890000D02*
X78710000Y-73170000D01*
%TO.N,td7*%
X75614251Y-130921000D02*
X43710000Y-99016749D01*
X143710000Y-67090000D02*
X142400000Y-68400000D01*
X78710000Y-132310000D02*
X77321000Y-130921000D01*
X142400000Y-68400000D02*
X142400000Y-102400000D01*
X142400000Y-102400000D02*
X143710000Y-103710000D01*
X43710000Y-93170000D02*
X43710000Y-85550000D01*
X77321000Y-130921000D02*
X75614251Y-130921000D01*
X43710000Y-99016749D02*
X43710000Y-93170000D01*
X78710000Y-133170000D02*
X78710000Y-132310000D01*
X143710000Y-65550000D02*
X143710000Y-67090000D01*
X143710000Y-103710000D02*
X143710000Y-105550000D01*
%TO.N,a5*%
X83800000Y-78800000D02*
X83790000Y-78790000D01*
X83790000Y-78790000D02*
X83790000Y-73170000D01*
%TO.N,cmp*%
X33200000Y-121400000D02*
X33200000Y-74200000D01*
X33200000Y-74200000D02*
X45200000Y-62200000D01*
X192200000Y-62200000D02*
X194030000Y-64030000D01*
X45200000Y-62200000D02*
X192200000Y-62200000D01*
X194030000Y-64030000D02*
X194030000Y-65550000D01*
%TO.N,a15*%
X78710000Y-119760000D02*
X78710000Y-113170000D01*
X78800000Y-119850000D02*
X78710000Y-119760000D01*
%TO.N,ta0*%
X194030000Y-105550000D02*
X194030000Y-101770000D01*
X238600000Y-62882843D02*
X240000000Y-64282843D01*
X240000000Y-121800000D02*
X232600000Y-129200000D01*
X240000000Y-64282843D02*
X240000000Y-121800000D01*
X194030000Y-101770000D02*
X195400000Y-100400000D01*
X232600000Y-129200000D02*
X228800000Y-129200000D01*
X228800000Y-129200000D02*
X226490000Y-131510000D01*
X226490000Y-131510000D02*
X226490000Y-133170000D01*
X238600000Y-62600000D02*
X238600000Y-62882843D01*
%TO.N,td5*%
X48790000Y-93170000D02*
X48790000Y-85550000D01*
X148790000Y-65550000D02*
X148790000Y-67010000D01*
X82656000Y-130056000D02*
X75883451Y-130056000D01*
X147600000Y-102400000D02*
X148790000Y-103590000D01*
X48790000Y-102962549D02*
X48790000Y-93170000D01*
X148790000Y-103590000D02*
X148790000Y-105550000D01*
X83790000Y-133170000D02*
X83790000Y-131190000D01*
X75883451Y-130056000D02*
X48790000Y-102962549D01*
X147600000Y-68200000D02*
X147600000Y-102400000D01*
X83790000Y-131190000D02*
X82656000Y-130056000D01*
X148790000Y-67010000D02*
X147600000Y-68200000D01*
%TO.N,td6*%
X146250000Y-65550000D02*
X146250000Y-67150000D01*
X80320000Y-130520000D02*
X75780351Y-130520000D01*
X146250000Y-67150000D02*
X145000000Y-68400000D01*
X146250000Y-103650000D02*
X146250000Y-105550000D01*
X46250000Y-100989649D02*
X46250000Y-93170000D01*
X81250000Y-133170000D02*
X81250000Y-131450000D01*
X145000000Y-102400000D02*
X146250000Y-103650000D01*
X46250000Y-85550000D02*
X46250000Y-93170000D01*
X145000000Y-68400000D02*
X145000000Y-102400000D01*
X75780351Y-130520000D02*
X46250000Y-100989649D01*
X81250000Y-131450000D02*
X80320000Y-130520000D01*
%TO.N,ldi*%
X136000000Y-68400000D02*
X120200000Y-68400000D01*
X120200000Y-68400000D02*
X118870000Y-67070000D01*
X51330000Y-123870000D02*
X51330000Y-125550000D01*
X150600000Y-118000000D02*
X141600000Y-118000000D01*
X156410000Y-125550000D02*
X156410000Y-123810000D01*
X61490000Y-125550000D02*
X61490000Y-123890000D01*
X156410000Y-123810000D02*
X150600000Y-118000000D01*
X141600000Y-118000000D02*
X137400000Y-113800000D01*
X52400000Y-122800000D02*
X51330000Y-123870000D01*
X118870000Y-67070000D02*
X118870000Y-65550000D01*
X60400000Y-122800000D02*
X52400000Y-122800000D01*
X61490000Y-123890000D02*
X60400000Y-122800000D01*
X137400000Y-69800000D02*
X136000000Y-68400000D01*
X137400000Y-113800000D02*
X137400000Y-69800000D01*
%TO.N,ta1*%
X232433900Y-128799000D02*
X239599000Y-121633900D01*
X239599000Y-121633900D02*
X239599000Y-64448943D01*
X223950000Y-131450000D02*
X226601000Y-128799000D01*
X191490000Y-105550000D02*
X191490000Y-101710000D01*
X226601000Y-128799000D02*
X232433900Y-128799000D01*
X239599000Y-64448943D02*
X237999000Y-62848943D01*
X237999000Y-62001000D02*
X238000000Y-62000000D01*
X191490000Y-101710000D02*
X193100000Y-100100000D01*
X223950000Y-133170000D02*
X223950000Y-131450000D01*
X237999000Y-62848943D02*
X237999000Y-62001000D01*
%TO.N,a2*%
X91400000Y-77000000D02*
X91410000Y-76990000D01*
X91410000Y-76990000D02*
X91410000Y-73170000D01*
%TO.N,a10*%
X91400000Y-116850000D02*
X91410000Y-116840000D01*
X91410000Y-116840000D02*
X91410000Y-113170000D01*
%TO.N,a6*%
X81250000Y-79350000D02*
X81250000Y-73170000D01*
X81200000Y-79400000D02*
X81250000Y-79350000D01*
%TO.N,a11*%
X88800000Y-117450000D02*
X88870000Y-117380000D01*
X88870000Y-117380000D02*
X88870000Y-113170000D01*
%TO.N,t_rd*%
X152800000Y-136200000D02*
X43200000Y-136200000D01*
X178790000Y-75210000D02*
X178790000Y-73170000D01*
X173600000Y-80400000D02*
X178790000Y-75210000D01*
X176830000Y-117830000D02*
X173600000Y-114600000D01*
X173600000Y-114600000D02*
X173600000Y-80400000D01*
X153870000Y-133170000D02*
X153870000Y-135070000D01*
X154999000Y-136199000D02*
X160201000Y-136199000D01*
X161490000Y-134910000D02*
X161490000Y-133170000D01*
X153870000Y-135130000D02*
X152800000Y-136200000D01*
X43200000Y-136200000D02*
X34600000Y-127600000D01*
X153870000Y-135070000D02*
X154999000Y-136199000D01*
X160201000Y-136199000D02*
X161490000Y-134910000D01*
X153870000Y-133170000D02*
X153870000Y-135130000D01*
%TO.N,ta3*%
X238797000Y-64781143D02*
X236799000Y-62783143D01*
X186410000Y-101893000D02*
X188300000Y-100003000D01*
X218870000Y-133170000D02*
X218870000Y-131330000D01*
X238797000Y-121235900D02*
X238797000Y-64781143D01*
X186410000Y-105550000D02*
X186410000Y-101893000D01*
X222203000Y-127997000D02*
X232035900Y-127997000D01*
X236799000Y-62783143D02*
X236799000Y-60801000D01*
X232035900Y-127997000D02*
X238797000Y-121235900D01*
X236799000Y-60801000D02*
X236800000Y-60800000D01*
X218870000Y-131330000D02*
X222203000Y-127997000D01*
%TO.N,a4*%
X86200500Y-78200500D02*
X86330000Y-78071000D01*
X86330000Y-78071000D02*
X86330000Y-73170000D01*
%TO.N,a13*%
X83800000Y-118650000D02*
X83790000Y-118640000D01*
X83790000Y-118640000D02*
X83790000Y-113170000D01*
%TO.N,ta2*%
X188950000Y-101653000D02*
X190600000Y-100003000D01*
X188950000Y-105550000D02*
X188950000Y-101653000D01*
X239198000Y-121402000D02*
X232202000Y-128398000D01*
X237400000Y-61400000D02*
X237399000Y-61399000D01*
X232202000Y-128398000D02*
X224402000Y-128398000D01*
X239198000Y-64615043D02*
X239198000Y-121402000D01*
X224402000Y-128398000D02*
X221410000Y-131390000D01*
X221410000Y-131390000D02*
X221410000Y-133170000D01*
X237399000Y-61399000D02*
X237399000Y-62816043D01*
X237399000Y-62816043D02*
X239198000Y-64615043D01*
%TO.N,a9*%
X93950000Y-116200000D02*
X94000000Y-116250000D01*
X93950000Y-113170000D02*
X93950000Y-116200000D01*
%TO.N,{slash}r*%
X181330000Y-135670000D02*
X181330000Y-133170000D01*
X181200000Y-135800000D02*
X181330000Y-135670000D01*
%TO.N,a14*%
X81200000Y-119250000D02*
X81250000Y-119200000D01*
X81250000Y-119200000D02*
X81250000Y-113170000D01*
%TO.N,td4*%
X150000000Y-102600000D02*
X151330000Y-103930000D01*
X150000000Y-68400000D02*
X150000000Y-102600000D01*
X76049551Y-129655000D02*
X51330000Y-104935449D01*
X86330000Y-133170000D02*
X86330000Y-130730000D01*
X85255000Y-129655000D02*
X76049551Y-129655000D01*
X151330000Y-103930000D02*
X151330000Y-105550000D01*
X51330000Y-85550000D02*
X51330000Y-93170000D01*
X86330000Y-130730000D02*
X85255000Y-129655000D01*
X151330000Y-65550000D02*
X151330000Y-67070000D01*
X51330000Y-104935449D02*
X51330000Y-93170000D01*
X151330000Y-67070000D02*
X150000000Y-68400000D01*
%TO.N,ta5*%
X217540000Y-102340000D02*
X218870000Y-103670000D01*
X218870000Y-103670000D02*
X218870000Y-105550000D01*
X176800000Y-99400000D02*
X176803000Y-99403000D01*
X215140000Y-130060000D02*
X213790000Y-131410000D01*
X218870000Y-107130000D02*
X215140000Y-110860000D01*
X213790000Y-65550000D02*
X213790000Y-66990000D01*
X218870000Y-105550000D02*
X218870000Y-107130000D01*
X195403000Y-99403000D02*
X203200000Y-107200000D01*
X217540000Y-70740000D02*
X217540000Y-102340000D01*
X213790000Y-66990000D02*
X217540000Y-70740000D01*
X215140000Y-110860000D02*
X215140000Y-130060000D01*
X176803000Y-99403000D02*
X195403000Y-99403000D01*
X213790000Y-131410000D02*
X213790000Y-133170000D01*
X203200000Y-107200000D02*
X203200000Y-128400000D01*
%TO.N,t_wr*%
X171400000Y-136600000D02*
X179000000Y-129000000D01*
X181330000Y-67070000D02*
X171000000Y-77400000D01*
X181330000Y-65550000D02*
X181330000Y-67070000D01*
X167000000Y-77400000D02*
X161490000Y-82910000D01*
X161490000Y-82910000D02*
X161490000Y-85550000D01*
X182400000Y-129000000D02*
X183870000Y-127530000D01*
X174200000Y-96400000D02*
X174200000Y-114000000D01*
X42000000Y-136600000D02*
X171400000Y-136600000D01*
X179000000Y-129000000D02*
X182400000Y-129000000D01*
X183870000Y-123670000D02*
X183870000Y-125550000D01*
X174200000Y-114000000D02*
X183870000Y-123670000D01*
X171000000Y-77400000D02*
X167000000Y-77400000D01*
X183870000Y-127530000D02*
X183870000Y-125550000D01*
X36800000Y-131400000D02*
X42000000Y-136600000D01*
%TO.N,a8*%
X96400000Y-115800000D02*
X96400000Y-115650000D01*
X96400000Y-115650000D02*
X96490000Y-115560000D01*
X96490000Y-115560000D02*
X96490000Y-113170000D01*
%TO.N,exc*%
X99030000Y-107030000D02*
X100400000Y-108400000D01*
X99030000Y-105550000D02*
X99030000Y-107030000D01*
X183870000Y-69130000D02*
X181330000Y-71670000D01*
X181330000Y-71670000D02*
X181330000Y-73170000D01*
X100400000Y-108400000D02*
X133200000Y-108400000D01*
X166400000Y-114200000D02*
X166400000Y-116000000D01*
X183870000Y-65550000D02*
X183870000Y-69130000D01*
%TO.N,a1*%
X94000000Y-76200000D02*
X93950000Y-76150000D01*
X94000000Y-76400000D02*
X94000000Y-76200000D01*
X93950000Y-76150000D02*
X93950000Y-73170000D01*
%TO.N,td3*%
X153800000Y-105480000D02*
X153870000Y-105550000D01*
X53870000Y-93170000D02*
X53870000Y-85550000D01*
X88870000Y-133170000D02*
X88870000Y-130470000D01*
X153870000Y-67130000D02*
X152600000Y-68400000D01*
X53870000Y-106908349D02*
X53870000Y-93170000D01*
X153800000Y-98600000D02*
X153800000Y-105480000D01*
X152600000Y-68400000D02*
X152600000Y-97400000D01*
X152600000Y-97400000D02*
X153800000Y-98600000D01*
X76215651Y-129254000D02*
X53870000Y-106908349D01*
X153870000Y-65550000D02*
X153870000Y-67130000D01*
X88870000Y-130470000D02*
X87654000Y-129254000D01*
X87654000Y-129254000D02*
X76215651Y-129254000D01*
%TO.N,ld_i*%
X197740000Y-87250000D02*
X197740000Y-78450000D01*
%TO.N,stc_i*%
X191490000Y-68400000D02*
X191490000Y-65550000D01*
X200540000Y-77450000D02*
X191490000Y-68400000D01*
X200540000Y-89250000D02*
X200540000Y-77450000D01*
%TO.N,ldi_i*%
X198940000Y-88450000D02*
X198940000Y-77250000D01*
%TO.N,Net-(U2-Pad3)*%
X202940000Y-97050000D02*
X207740000Y-101850000D01*
X202940000Y-62050000D02*
X202940000Y-97050000D01*
%TO.N,Net-(U2-Pad4)*%
X202140000Y-97650000D02*
X207140000Y-102650000D01*
X202140000Y-61250000D02*
X202140000Y-97650000D01*
%TO.N,Net-(U18B-~{Q})*%
X178790000Y-93170000D02*
X178790000Y-94990000D01*
X178790000Y-94990000D02*
X180850000Y-97050000D01*
X180850000Y-97050000D02*
X194940000Y-97050000D01*
X194940000Y-97050000D02*
X206540000Y-108650000D01*
%TO.N,st_i*%
X221410000Y-97120000D02*
X221410000Y-93170000D01*
X226490000Y-105550000D02*
X226490000Y-102200000D01*
X226490000Y-102200000D02*
X221410000Y-97120000D01*
%TO.N,Net-(U3-Pad11)*%
X221410000Y-117000000D02*
X221410000Y-113170000D01*
%TO.N,Net-(U18A-~{Q})*%
X207340000Y-107850000D02*
X196140000Y-96650000D01*
X196140000Y-96650000D02*
X196140000Y-82650000D01*
%TO.N,Net-(U4-Q7)*%
X208710000Y-133170000D02*
X208710000Y-131490000D01*
X209940000Y-130260000D02*
X209940000Y-83450000D01*
X208710000Y-131490000D02*
X209940000Y-130260000D01*
%TO.N,Net-(U4-Q6)*%
X212540000Y-130060000D02*
X211250000Y-131350000D01*
X212540000Y-82450000D02*
X212540000Y-130060000D01*
X211250000Y-131350000D02*
X211250000Y-133170000D01*
%TO.N,tadr0*%
X162800000Y-129850000D02*
X161850000Y-130800000D01*
X164030000Y-85550000D02*
X164030000Y-87370000D01*
X161850000Y-130800000D02*
X152400000Y-130800000D01*
X152400000Y-130800000D02*
X151330000Y-131870000D01*
X164030000Y-87370000D02*
X162800000Y-88600000D01*
X162800000Y-88600000D02*
X162800000Y-118600000D01*
X162800000Y-118600000D02*
X162800000Y-129850000D01*
X151330000Y-131870000D02*
X151330000Y-133170000D01*
%TO.N,tadr1*%
X157600000Y-124000000D02*
X152600000Y-119000000D01*
X158950000Y-130000000D02*
X157600000Y-128650000D01*
X151330000Y-102530000D02*
X151330000Y-93170000D01*
X157600000Y-128650000D02*
X157600000Y-124000000D01*
X152600000Y-119000000D02*
X152600000Y-117000000D01*
X152600000Y-117000000D02*
X152600000Y-103800000D01*
X152600000Y-103800000D02*
X151330000Y-102530000D01*
%TO.N,Net-(U7-OE)*%
X229000000Y-65580000D02*
X229030000Y-65550000D01*
X227700000Y-116300000D02*
X227800000Y-116200000D01*
X227800000Y-116200000D02*
X227800000Y-68400000D01*
X229000000Y-67200000D02*
X229000000Y-65580000D01*
X227800000Y-68400000D02*
X229000000Y-67200000D01*
%TO.N,Net-(U9-OE)*%
X172200000Y-104800000D02*
X172200000Y-114400000D01*
X181330000Y-123530000D02*
X181330000Y-125550000D01*
X170400000Y-103000000D02*
X172200000Y-104800000D01*
X172200000Y-114400000D02*
X181330000Y-123530000D01*
%TO.N,r*%
X178790000Y-136990000D02*
X178790000Y-133170000D01*
X178800000Y-137000000D02*
X178790000Y-136990000D01*
%TO.N,Net-(U17-Pad1)*%
X164030000Y-125550000D02*
X164030000Y-127230000D01*
X165200000Y-128400000D02*
X176200000Y-128400000D01*
X164030000Y-127230000D02*
X165200000Y-128400000D01*
%TO.N,o3*%
X88870000Y-83870000D02*
X88870000Y-85550000D01*
X87600000Y-82600000D02*
X88870000Y-83870000D01*
X88870000Y-65550000D02*
X88870000Y-67130000D01*
X88870000Y-67130000D02*
X87600000Y-68400000D01*
X87600000Y-68400000D02*
X87600000Y-82600000D01*
%TO.N,o1*%
X93950000Y-65550000D02*
X93950000Y-67050000D01*
X92600000Y-82600000D02*
X93950000Y-83950000D01*
X93950000Y-67050000D02*
X92600000Y-68400000D01*
X93950000Y-65550000D02*
X93950000Y-64250000D01*
X93950000Y-64250000D02*
X95600000Y-62600000D01*
X126490000Y-64090000D02*
X126490000Y-65550000D01*
X125000000Y-62600000D02*
X126490000Y-64090000D01*
X92600000Y-68400000D02*
X92600000Y-82600000D01*
X95600000Y-62600000D02*
X125000000Y-62600000D01*
X93950000Y-83950000D02*
X93950000Y-85550000D01*
%TO.N,o0*%
X96490000Y-65550000D02*
X96490000Y-64110000D01*
X95200000Y-68400000D02*
X95200000Y-82600000D01*
X96490000Y-64110000D02*
X97600000Y-63000000D01*
X96490000Y-65550000D02*
X96490000Y-67110000D01*
X122800000Y-63000000D02*
X123950000Y-64150000D01*
X96490000Y-67110000D02*
X95200000Y-68400000D01*
X97600000Y-63000000D02*
X122800000Y-63000000D01*
X123950000Y-64150000D02*
X123950000Y-65550000D01*
X95200000Y-82600000D02*
X96490000Y-83890000D01*
X96490000Y-83890000D02*
X96490000Y-85550000D01*
%TO.N,o2*%
X91410000Y-65550000D02*
X91410000Y-67190000D01*
X90200000Y-82800000D02*
X91410000Y-84010000D01*
X90200000Y-68400000D02*
X90200000Y-82800000D01*
X91410000Y-84010000D02*
X91410000Y-85550000D01*
X91410000Y-67190000D02*
X90200000Y-68400000D01*
%TO.N,o4*%
X86330000Y-67070000D02*
X85000000Y-68400000D01*
X123950000Y-87050000D02*
X122800000Y-88200000D01*
X86330000Y-65550000D02*
X86330000Y-67070000D01*
X87200000Y-88200000D02*
X86330000Y-87330000D01*
X86330000Y-87330000D02*
X86330000Y-85550000D01*
X86330000Y-83930000D02*
X86330000Y-85550000D01*
X123950000Y-85550000D02*
X123950000Y-87050000D01*
X85000000Y-82600000D02*
X86330000Y-83930000D01*
X85000000Y-68400000D02*
X85000000Y-82600000D01*
X122800000Y-88200000D02*
X87200000Y-88200000D01*
%TO.N,o5*%
X82600000Y-68200000D02*
X82600000Y-82600000D01*
X83790000Y-83790000D02*
X83790000Y-85550000D01*
X126490000Y-85550000D02*
X126490000Y-87110000D01*
X83790000Y-87190000D02*
X83790000Y-85550000D01*
X125000000Y-88600000D02*
X85200000Y-88600000D01*
X82600000Y-82600000D02*
X83790000Y-83790000D01*
X83790000Y-67010000D02*
X82600000Y-68200000D01*
X126490000Y-87110000D02*
X125000000Y-88600000D01*
X85200000Y-88600000D02*
X83790000Y-87190000D01*
X83790000Y-65550000D02*
X83790000Y-67010000D01*
%TO.N,o7*%
X77400000Y-82600000D02*
X78710000Y-83910000D01*
X77400000Y-68200000D02*
X77400000Y-82600000D01*
X78710000Y-83910000D02*
X78710000Y-85550000D01*
X78710000Y-65550000D02*
X78710000Y-66890000D01*
X78710000Y-66890000D02*
X77400000Y-68200000D01*
%TO.N,o6*%
X80000000Y-68200000D02*
X80000000Y-82600000D01*
X80000000Y-82600000D02*
X81250000Y-83850000D01*
X81250000Y-66950000D02*
X80000000Y-68200000D01*
X81250000Y-83850000D02*
X81250000Y-85550000D01*
X81250000Y-65550000D02*
X81250000Y-66950000D01*
%TO.N,Net-(U12-~{CO})*%
X118870000Y-113170000D02*
X118870000Y-125550000D01*
%TO.N,o8*%
X95200000Y-108400000D02*
X95200000Y-122400000D01*
X123950000Y-105550000D02*
X123950000Y-104150000D01*
X96490000Y-107110000D02*
X95200000Y-108400000D01*
X96490000Y-123690000D02*
X96490000Y-125550000D01*
X96490000Y-105550000D02*
X96490000Y-107110000D01*
X97600000Y-103000000D02*
X96490000Y-104110000D01*
X123950000Y-104150000D02*
X122800000Y-103000000D01*
X122800000Y-103000000D02*
X97600000Y-103000000D01*
X96490000Y-104110000D02*
X96490000Y-105550000D01*
X95200000Y-122400000D02*
X96490000Y-123690000D01*
%TO.N,Net-(U12-~{BO})*%
X121410000Y-113170000D02*
X121410000Y-125550000D01*
%TO.N,i11*%
X111250000Y-115050000D02*
X116000000Y-119800000D01*
X116000000Y-119800000D02*
X117600000Y-119800000D01*
X153870000Y-118930000D02*
X153870000Y-113170000D01*
X111250000Y-113170000D02*
X111250000Y-115050000D01*
X153800000Y-119000000D02*
X153870000Y-118930000D01*
%TO.N,o11*%
X87600000Y-122600000D02*
X88870000Y-123870000D01*
X88870000Y-107130000D02*
X87600000Y-108400000D01*
X88870000Y-105550000D02*
X88870000Y-107130000D01*
X87600000Y-108400000D02*
X87600000Y-122600000D01*
X88870000Y-123870000D02*
X88870000Y-125550000D01*
%TO.N,o10*%
X91410000Y-105550000D02*
X91410000Y-107190000D01*
X90200000Y-122400000D02*
X91400000Y-123600000D01*
X91400000Y-125540000D02*
X91410000Y-125550000D01*
X91400000Y-123600000D02*
X91400000Y-125540000D01*
X90200000Y-108400000D02*
X90200000Y-122400000D01*
X91410000Y-107190000D02*
X90200000Y-108400000D01*
%TO.N,i10*%
X156410000Y-117990000D02*
X156410000Y-113170000D01*
X113790000Y-113170000D02*
X113790000Y-115390000D01*
X113790000Y-115390000D02*
X117000000Y-118600000D01*
X117000000Y-118600000D02*
X117600000Y-118600000D01*
X155400000Y-119000000D02*
X156410000Y-117990000D01*
%TO.N,o9*%
X93950000Y-105550000D02*
X93950000Y-107050000D01*
X93950000Y-107050000D02*
X92600000Y-108400000D01*
X126490000Y-103890000D02*
X125200000Y-102600000D01*
X92600000Y-122300000D02*
X93950000Y-123650000D01*
X126490000Y-105550000D02*
X126490000Y-103890000D01*
X95600000Y-102600000D02*
X93950000Y-104250000D01*
X92600000Y-108400000D02*
X92600000Y-122300000D01*
X125200000Y-102600000D02*
X95600000Y-102600000D01*
X93950000Y-123650000D02*
X93950000Y-125550000D01*
X93950000Y-104250000D02*
X93950000Y-105550000D01*
%TO.N,o15*%
X77400000Y-122400000D02*
X78710000Y-123710000D01*
X78710000Y-105550000D02*
X78710000Y-107290000D01*
X78710000Y-107290000D02*
X77400000Y-108600000D01*
X78710000Y-123710000D02*
X78710000Y-125550000D01*
X77400000Y-108600000D02*
X77400000Y-122400000D01*
%TO.N,o13*%
X83790000Y-123790000D02*
X83790000Y-125550000D01*
X84450000Y-127650000D02*
X83790000Y-126990000D01*
X83790000Y-105550000D02*
X83790000Y-107210000D01*
X82600000Y-122600000D02*
X83790000Y-123790000D01*
X82600000Y-108400000D02*
X82600000Y-122600000D01*
X83790000Y-126990000D02*
X83790000Y-125550000D01*
X125550000Y-127650000D02*
X84450000Y-127650000D01*
X126490000Y-126710000D02*
X125550000Y-127650000D01*
X126490000Y-125550000D02*
X126490000Y-126710000D01*
X83790000Y-107210000D02*
X82600000Y-108400000D01*
%TO.N,o14*%
X81250000Y-105550000D02*
X81250000Y-107350000D01*
X80000000Y-108600000D02*
X80000000Y-122800000D01*
X80000000Y-122800000D02*
X81250000Y-124050000D01*
X81250000Y-107350000D02*
X80000000Y-108600000D01*
X81250000Y-124050000D02*
X81250000Y-125550000D01*
%TO.N,o12*%
X86330000Y-123930000D02*
X86330000Y-125550000D01*
X86849000Y-127249000D02*
X86330000Y-126730000D01*
X86330000Y-126730000D02*
X86330000Y-125550000D01*
X85000000Y-108600000D02*
X85000000Y-122600000D01*
X123950000Y-126450000D02*
X123151000Y-127249000D01*
X85000000Y-122600000D02*
X86330000Y-123930000D01*
X86330000Y-107270000D02*
X85000000Y-108600000D01*
X86330000Y-105550000D02*
X86330000Y-107270000D01*
X123151000Y-127249000D02*
X86849000Y-127249000D01*
X123950000Y-125550000D02*
X123950000Y-126450000D01*
%TO.N,Net-(U15-Load)*%
X157600000Y-103400000D02*
X156410000Y-102210000D01*
X156410000Y-102210000D02*
X156410000Y-93170000D01*
X155400000Y-110600000D02*
X157600000Y-108400000D01*
X157600000Y-108400000D02*
X157600000Y-103400000D01*
%TO.N,Net-(U20-OE)*%
X132099000Y-128901000D02*
X132200000Y-128800000D01*
X99301000Y-128901000D02*
X132099000Y-128901000D01*
X99030000Y-128630000D02*
X99301000Y-128901000D01*
X99030000Y-128430000D02*
X99030000Y-128630000D01*
%TO.N,Net-(U19-OE)*%
X135600000Y-87250000D02*
X130950000Y-82600000D01*
X99030000Y-83970000D02*
X99030000Y-85550000D01*
X130950000Y-82600000D02*
X100400000Y-82600000D01*
X135600000Y-121850000D02*
X135600000Y-87250000D01*
X146920000Y-133170000D02*
X135600000Y-121850000D01*
X148790000Y-133170000D02*
X146920000Y-133170000D01*
X100400000Y-82600000D02*
X99030000Y-83970000D01*
%TO.N,Net-(U18A-~{R})*%
X187800000Y-119600000D02*
X187800000Y-117400000D01*
X194030000Y-85550000D02*
X194030000Y-88370000D01*
X187800000Y-117400000D02*
X185200000Y-114800000D01*
X194030000Y-88370000D02*
X191490000Y-90910000D01*
X185200000Y-114800000D02*
X185200000Y-100003000D01*
X191490000Y-90910000D02*
X191490000Y-93170000D01*
%TD*%
M02*
