%TF.GenerationSoftware,KiCad,Pcbnew,9.0.7*%
%TF.CreationDate,2026-01-08T20:10:54-05:00*%
%TF.ProjectId,tb8_cu,7462385f-6375-42e6-9b69-6361645f7063,1.0*%
%TF.SameCoordinates,Original*%
%TF.FileFunction,Soldermask,Bot*%
%TF.FilePolarity,Negative*%
%FSLAX46Y46*%
G04 Gerber Fmt 4.6, Leading zero omitted, Abs format (unit mm)*
G04 Created by KiCad (PCBNEW 9.0.7) date 2026-01-08 20:10:54*
%MOMM*%
%LPD*%
G01*
G04 APERTURE LIST*
G04 Aperture macros list*
%AMRoundRect*
0 Rectangle with rounded corners*
0 $1 Rounding radius*
0 $2 $3 $4 $5 $6 $7 $8 $9 X,Y pos of 4 corners*
0 Add a 4 corners polygon primitive as box body*
4,1,4,$2,$3,$4,$5,$6,$7,$8,$9,$2,$3,0*
0 Add four circle primitives for the rounded corners*
1,1,$1+$1,$2,$3*
1,1,$1+$1,$4,$5*
1,1,$1+$1,$6,$7*
1,1,$1+$1,$8,$9*
0 Add four rect primitives between the rounded corners*
20,1,$1+$1,$2,$3,$4,$5,0*
20,1,$1+$1,$4,$5,$6,$7,0*
20,1,$1+$1,$6,$7,$8,$9,0*
20,1,$1+$1,$8,$9,$2,$3,0*%
G04 Aperture macros list end*
%ADD10C,0.100000*%
%ADD11C,1.600000*%
%ADD12RoundRect,0.250000X-0.550000X0.950000X-0.550000X-0.950000X0.550000X-0.950000X0.550000X0.950000X0*%
%ADD13O,1.600000X2.400000*%
%ADD14RoundRect,0.255000X-3.495000X0.595000X-3.495000X-0.595000X3.495000X-0.595000X3.495000X0.595000X0*%
G04 APERTURE END LIST*
%TO.C,J1*%
D10*
X32000000Y-67950000D02*
X24000000Y-67950000D01*
X24000000Y-131450000D01*
X32000000Y-131450000D01*
X32000000Y-67950000D01*
G36*
X32000000Y-67950000D02*
G01*
X24000000Y-67950000D01*
X24000000Y-131450000D01*
X32000000Y-131450000D01*
X32000000Y-67950000D01*
G37*
%TD*%
D11*
%TO.C,C20*%
X104030000Y-133550000D03*
X104030000Y-131050000D03*
%TD*%
%TO.C,C17*%
X169030000Y-133550000D03*
X169030000Y-131050000D03*
%TD*%
%TO.C,C11*%
X134030000Y-93550000D03*
X134030000Y-91050000D03*
%TD*%
%TO.C,C4*%
X234030000Y-133550000D03*
X234030000Y-131050000D03*
%TD*%
%TO.C,C2*%
X199030000Y-74050000D03*
X199030000Y-71550000D03*
%TD*%
D12*
%TO.C,U12*%
X129030000Y-105550000D03*
D13*
X126490000Y-105550000D03*
X123950000Y-105550000D03*
X121410000Y-105550000D03*
X118870000Y-105550000D03*
X116330000Y-105550000D03*
X113790000Y-105550000D03*
X111250000Y-105550000D03*
X111250000Y-113170000D03*
X113790000Y-113170000D03*
X116330000Y-113170000D03*
X118870000Y-113170000D03*
X121410000Y-113170000D03*
X123950000Y-113170000D03*
X126490000Y-113170000D03*
X129030000Y-113170000D03*
%TD*%
D12*
%TO.C,U16*%
X164030000Y-85550000D03*
D13*
X161490000Y-85550000D03*
X158950000Y-85550000D03*
X156410000Y-85550000D03*
X153870000Y-85550000D03*
X151330000Y-85550000D03*
X148790000Y-85550000D03*
X148790000Y-93170000D03*
X151330000Y-93170000D03*
X153870000Y-93170000D03*
X156410000Y-93170000D03*
X158950000Y-93170000D03*
X161490000Y-93170000D03*
X164030000Y-93170000D03*
%TD*%
D12*
%TO.C,U13*%
X129030000Y-125550000D03*
D13*
X126490000Y-125550000D03*
X123950000Y-125550000D03*
X121410000Y-125550000D03*
X118870000Y-125550000D03*
X116330000Y-125550000D03*
X113790000Y-125550000D03*
X111250000Y-125550000D03*
X111250000Y-133170000D03*
X113790000Y-133170000D03*
X116330000Y-133170000D03*
X118870000Y-133170000D03*
X121410000Y-133170000D03*
X123950000Y-133170000D03*
X126490000Y-133170000D03*
X129030000Y-133170000D03*
%TD*%
D11*
%TO.C,C12*%
X134030000Y-113550000D03*
X134030000Y-111050000D03*
%TD*%
D12*
%TO.C,U17*%
X164030000Y-125550000D03*
D13*
X161490000Y-125550000D03*
X158950000Y-125550000D03*
X156410000Y-125550000D03*
X153870000Y-125550000D03*
X151330000Y-125550000D03*
X148790000Y-125550000D03*
X148790000Y-133170000D03*
X151330000Y-133170000D03*
X153870000Y-133170000D03*
X156410000Y-133170000D03*
X158950000Y-133170000D03*
X161490000Y-133170000D03*
X164030000Y-133170000D03*
%TD*%
D12*
%TO.C,U2*%
X194030000Y-65550000D03*
D13*
X191490000Y-65550000D03*
X188950000Y-65550000D03*
X186410000Y-65550000D03*
X183870000Y-65550000D03*
X181330000Y-65550000D03*
X178790000Y-65550000D03*
X178790000Y-73170000D03*
X181330000Y-73170000D03*
X183870000Y-73170000D03*
X186410000Y-73170000D03*
X188950000Y-73170000D03*
X191490000Y-73170000D03*
X194030000Y-73170000D03*
%TD*%
D12*
%TO.C,U1*%
X64030000Y-125550000D03*
D13*
X61490000Y-125550000D03*
X58950000Y-125550000D03*
X56410000Y-125550000D03*
X53870000Y-125550000D03*
X51330000Y-125550000D03*
X48790000Y-125550000D03*
X48790000Y-133170000D03*
X51330000Y-133170000D03*
X53870000Y-133170000D03*
X56410000Y-133170000D03*
X58950000Y-133170000D03*
X61490000Y-133170000D03*
X64030000Y-133170000D03*
%TD*%
D12*
%TO.C,U22*%
X99030000Y-105550000D03*
D13*
X96490000Y-105550000D03*
X93950000Y-105550000D03*
X91410000Y-105550000D03*
X88870000Y-105550000D03*
X86330000Y-105550000D03*
X83790000Y-105550000D03*
X81250000Y-105550000D03*
X78710000Y-105550000D03*
X76170000Y-105550000D03*
X76170000Y-113170000D03*
X78710000Y-113170000D03*
X81250000Y-113170000D03*
X83790000Y-113170000D03*
X86330000Y-113170000D03*
X88870000Y-113170000D03*
X91410000Y-113170000D03*
X93950000Y-113170000D03*
X96490000Y-113170000D03*
X99030000Y-113170000D03*
%TD*%
D11*
%TO.C,C13*%
X134030000Y-133550000D03*
X134030000Y-131050000D03*
%TD*%
%TO.C,C22*%
X104030000Y-113550000D03*
X104030000Y-111050000D03*
%TD*%
%TO.C,C3*%
X234030000Y-113550000D03*
X234030000Y-111050000D03*
%TD*%
D12*
%TO.C,U8*%
X194030000Y-125550000D03*
D13*
X191490000Y-125550000D03*
X188950000Y-125550000D03*
X186410000Y-125550000D03*
X183870000Y-125550000D03*
X181330000Y-125550000D03*
X178790000Y-125550000D03*
X178790000Y-133170000D03*
X181330000Y-133170000D03*
X183870000Y-133170000D03*
X186410000Y-133170000D03*
X188950000Y-133170000D03*
X191490000Y-133170000D03*
X194030000Y-133170000D03*
%TD*%
D11*
%TO.C,C8*%
X199030000Y-133550000D03*
X199030000Y-131050000D03*
%TD*%
%TO.C,C16*%
X169030000Y-93550000D03*
X169030000Y-91050000D03*
%TD*%
D12*
%TO.C,U7*%
X229030000Y-65550000D03*
D13*
X226490000Y-65550000D03*
X223950000Y-65550000D03*
X221410000Y-65550000D03*
X218870000Y-65550000D03*
X216330000Y-65550000D03*
X213790000Y-65550000D03*
X211250000Y-65550000D03*
X208710000Y-65550000D03*
X206170000Y-65550000D03*
X206170000Y-73170000D03*
X208710000Y-73170000D03*
X211250000Y-73170000D03*
X213790000Y-73170000D03*
X216330000Y-73170000D03*
X218870000Y-73170000D03*
X221410000Y-73170000D03*
X223950000Y-73170000D03*
X226490000Y-73170000D03*
X229030000Y-73170000D03*
%TD*%
D12*
%TO.C,U19*%
X99030000Y-85550000D03*
D13*
X96490000Y-85550000D03*
X93950000Y-85550000D03*
X91410000Y-85550000D03*
X88870000Y-85550000D03*
X86330000Y-85550000D03*
X83790000Y-85550000D03*
X81250000Y-85550000D03*
X78710000Y-85550000D03*
X76170000Y-85550000D03*
X76170000Y-93170000D03*
X78710000Y-93170000D03*
X81250000Y-93170000D03*
X83790000Y-93170000D03*
X86330000Y-93170000D03*
X88870000Y-93170000D03*
X91410000Y-93170000D03*
X93950000Y-93170000D03*
X96490000Y-93170000D03*
X99030000Y-93170000D03*
%TD*%
D11*
%TO.C,C1*%
X69030000Y-133550000D03*
X69030000Y-131050000D03*
%TD*%
D12*
%TO.C,U15*%
X164030000Y-105550000D03*
D13*
X161490000Y-105550000D03*
X158950000Y-105550000D03*
X156410000Y-105550000D03*
X153870000Y-105550000D03*
X151330000Y-105550000D03*
X148790000Y-105550000D03*
X146250000Y-105550000D03*
X143710000Y-105550000D03*
X141170000Y-105550000D03*
X141170000Y-113170000D03*
X143710000Y-113170000D03*
X146250000Y-113170000D03*
X148790000Y-113170000D03*
X151330000Y-113170000D03*
X153870000Y-113170000D03*
X156410000Y-113170000D03*
X158950000Y-113170000D03*
X161490000Y-113170000D03*
X164030000Y-113170000D03*
%TD*%
D11*
%TO.C,C19*%
X104030000Y-93550000D03*
X104030000Y-91050000D03*
%TD*%
%TO.C,C7*%
X234030000Y-73550000D03*
X234030000Y-71050000D03*
%TD*%
D12*
%TO.C,U3*%
X229030000Y-105550000D03*
D13*
X226490000Y-105550000D03*
X223950000Y-105550000D03*
X221410000Y-105550000D03*
X218870000Y-105550000D03*
X216330000Y-105550000D03*
X213790000Y-105550000D03*
X213790000Y-113170000D03*
X216330000Y-113170000D03*
X218870000Y-113170000D03*
X221410000Y-113170000D03*
X223950000Y-113170000D03*
X226490000Y-113170000D03*
X229030000Y-113170000D03*
%TD*%
D12*
%TO.C,U14*%
X164030000Y-65550000D03*
D13*
X161490000Y-65550000D03*
X158950000Y-65550000D03*
X156410000Y-65550000D03*
X153870000Y-65550000D03*
X151330000Y-65550000D03*
X148790000Y-65550000D03*
X146250000Y-65550000D03*
X143710000Y-65550000D03*
X141170000Y-65550000D03*
X141170000Y-73170000D03*
X143710000Y-73170000D03*
X146250000Y-73170000D03*
X148790000Y-73170000D03*
X151330000Y-73170000D03*
X153870000Y-73170000D03*
X156410000Y-73170000D03*
X158950000Y-73170000D03*
X161490000Y-73170000D03*
X164030000Y-73170000D03*
%TD*%
D11*
%TO.C,C21*%
X104030000Y-73550000D03*
X104030000Y-71050000D03*
%TD*%
D12*
%TO.C,U10*%
X129030000Y-65550000D03*
D13*
X126490000Y-65550000D03*
X123950000Y-65550000D03*
X121410000Y-65550000D03*
X118870000Y-65550000D03*
X116330000Y-65550000D03*
X113790000Y-65550000D03*
X111250000Y-65550000D03*
X111250000Y-73170000D03*
X113790000Y-73170000D03*
X116330000Y-73170000D03*
X118870000Y-73170000D03*
X121410000Y-73170000D03*
X123950000Y-73170000D03*
X126490000Y-73170000D03*
X129030000Y-73170000D03*
%TD*%
D11*
%TO.C,C6*%
X199030000Y-113550000D03*
X199030000Y-111050000D03*
%TD*%
D12*
%TO.C,U9*%
X64030000Y-85550000D03*
D13*
X61490000Y-85550000D03*
X58950000Y-85550000D03*
X56410000Y-85550000D03*
X53870000Y-85550000D03*
X51330000Y-85550000D03*
X48790000Y-85550000D03*
X46250000Y-85550000D03*
X43710000Y-85550000D03*
X41170000Y-85550000D03*
X41170000Y-93170000D03*
X43710000Y-93170000D03*
X46250000Y-93170000D03*
X48790000Y-93170000D03*
X51330000Y-93170000D03*
X53870000Y-93170000D03*
X56410000Y-93170000D03*
X58950000Y-93170000D03*
X61490000Y-93170000D03*
X64030000Y-93170000D03*
%TD*%
D11*
%TO.C,C15*%
X169030000Y-113550000D03*
X169030000Y-111050000D03*
%TD*%
%TO.C,C14*%
X169030000Y-74050000D03*
X169030000Y-71550000D03*
%TD*%
D12*
%TO.C,U5*%
X229030000Y-85550000D03*
D13*
X226490000Y-85550000D03*
X223950000Y-85550000D03*
X221410000Y-85550000D03*
X218870000Y-85550000D03*
X216330000Y-85550000D03*
X213790000Y-85550000D03*
X211250000Y-85550000D03*
X211250000Y-93170000D03*
X213790000Y-93170000D03*
X216330000Y-93170000D03*
X218870000Y-93170000D03*
X221410000Y-93170000D03*
X223950000Y-93170000D03*
X226490000Y-93170000D03*
X229030000Y-93170000D03*
%TD*%
D12*
%TO.C,U21*%
X99030000Y-65550000D03*
D13*
X96490000Y-65550000D03*
X93950000Y-65550000D03*
X91410000Y-65550000D03*
X88870000Y-65550000D03*
X86330000Y-65550000D03*
X83790000Y-65550000D03*
X81250000Y-65550000D03*
X78710000Y-65550000D03*
X76170000Y-65550000D03*
X76170000Y-73170000D03*
X78710000Y-73170000D03*
X81250000Y-73170000D03*
X83790000Y-73170000D03*
X86330000Y-73170000D03*
X88870000Y-73170000D03*
X91410000Y-73170000D03*
X93950000Y-73170000D03*
X96490000Y-73170000D03*
X99030000Y-73170000D03*
%TD*%
D11*
%TO.C,C18*%
X199030000Y-93550000D03*
X199030000Y-91050000D03*
%TD*%
D12*
%TO.C,U11*%
X129030000Y-85550000D03*
D13*
X126490000Y-85550000D03*
X123950000Y-85550000D03*
X121410000Y-85550000D03*
X118870000Y-85550000D03*
X116330000Y-85550000D03*
X113790000Y-85550000D03*
X111250000Y-85550000D03*
X111250000Y-93170000D03*
X113790000Y-93170000D03*
X116330000Y-93170000D03*
X118870000Y-93170000D03*
X121410000Y-93170000D03*
X123950000Y-93170000D03*
X126490000Y-93170000D03*
X129030000Y-93170000D03*
%TD*%
D12*
%TO.C,U6*%
X194030000Y-105550000D03*
D13*
X191490000Y-105550000D03*
X188950000Y-105550000D03*
X186410000Y-105550000D03*
X183870000Y-105550000D03*
X181330000Y-105550000D03*
X178790000Y-105550000D03*
X176250000Y-105550000D03*
X176250000Y-113170000D03*
X178790000Y-113170000D03*
X181330000Y-113170000D03*
X183870000Y-113170000D03*
X186410000Y-113170000D03*
X188950000Y-113170000D03*
X191490000Y-113170000D03*
X194030000Y-113170000D03*
%TD*%
D12*
%TO.C,U4*%
X229030000Y-125550000D03*
D13*
X226490000Y-125550000D03*
X223950000Y-125550000D03*
X221410000Y-125550000D03*
X218870000Y-125550000D03*
X216330000Y-125550000D03*
X213790000Y-125550000D03*
X211250000Y-125550000D03*
X208710000Y-125550000D03*
X206170000Y-125550000D03*
X206170000Y-133170000D03*
X208710000Y-133170000D03*
X211250000Y-133170000D03*
X213790000Y-133170000D03*
X216330000Y-133170000D03*
X218870000Y-133170000D03*
X221410000Y-133170000D03*
X223950000Y-133170000D03*
X226490000Y-133170000D03*
X229030000Y-133170000D03*
%TD*%
D12*
%TO.C,U18*%
X194030000Y-85550000D03*
D13*
X191490000Y-85550000D03*
X188950000Y-85550000D03*
X186410000Y-85550000D03*
X183870000Y-85550000D03*
X181330000Y-85550000D03*
X178790000Y-85550000D03*
X178790000Y-93170000D03*
X181330000Y-93170000D03*
X183870000Y-93170000D03*
X186410000Y-93170000D03*
X188950000Y-93170000D03*
X191490000Y-93170000D03*
X194030000Y-93170000D03*
%TD*%
D11*
%TO.C,C10*%
X134030000Y-73550000D03*
X134030000Y-71050000D03*
%TD*%
%TO.C,C9*%
X69030000Y-94550000D03*
X69030000Y-92050000D03*
%TD*%
D12*
%TO.C,U20*%
X99030000Y-125550000D03*
D13*
X96490000Y-125550000D03*
X93950000Y-125550000D03*
X91410000Y-125550000D03*
X88870000Y-125550000D03*
X86330000Y-125550000D03*
X83790000Y-125550000D03*
X81250000Y-125550000D03*
X78710000Y-125550000D03*
X76170000Y-125550000D03*
X76170000Y-133170000D03*
X78710000Y-133170000D03*
X81250000Y-133170000D03*
X83790000Y-133170000D03*
X86330000Y-133170000D03*
X88870000Y-133170000D03*
X91410000Y-133170000D03*
X93950000Y-133170000D03*
X96490000Y-133170000D03*
X99030000Y-133170000D03*
%TD*%
D11*
%TO.C,C5*%
X234030000Y-93550000D03*
X234030000Y-91050000D03*
%TD*%
D14*
%TO.C,J1*%
X28000000Y-130180000D03*
X28000000Y-127640000D03*
X28000000Y-125100000D03*
X28000000Y-122560000D03*
X28000000Y-120020000D03*
X28000000Y-117480000D03*
X28000000Y-114940000D03*
X28000000Y-112400000D03*
X28000000Y-109860000D03*
X28000000Y-107320000D03*
X28000000Y-104780000D03*
X28000000Y-102240000D03*
X28000000Y-99700000D03*
X28000000Y-97160000D03*
X28000000Y-94620000D03*
X28000000Y-92080000D03*
X28000000Y-89540000D03*
X28000000Y-87000000D03*
X28000000Y-84460000D03*
X28000000Y-81920000D03*
X28000000Y-79380000D03*
X28000000Y-76840000D03*
X28000000Y-74300000D03*
X28000000Y-71760000D03*
X28000000Y-69220000D03*
%TD*%
M02*
